<svg version="1.1" id="Layer_1" xmlns="http://www.w3.org/2000/svg" xmlns:xlink="http://www.w3.org/1999/xlink" x="0px" y="0px"
	 width="100%" viewBox="0 0 1443 821" enable-background="new 0 0 1443 821" xml:space="preserve">
<path fill="#FFFFFF" opacity="1.000000" stroke="none" 
	d="
M911.000000,822.000000 
	C607.333313,822.000000 304.166656,822.000000 1.000000,822.000000 
	C1.000000,548.333313 1.000000,274.666656 1.000000,1.000000 
	C482.000000,1.000000 963.000000,1.000000 1444.000000,1.000000 
	C1444.000000,274.666656 1444.000000,548.333313 1444.000000,822.000000 
	C1266.500000,822.000000 1089.000000,822.000000 911.000000,822.000000 
M1002.739014,356.234253 
	C1007.015808,358.788757 1011.283569,361.358429 1015.571045,363.894867 
	C1026.984741,370.647156 1038.406860,377.385071 1049.959473,385.039429 
	C1049.959473,389.976257 1049.959473,394.913086 1049.959473,399.756989 
	C1054.963745,399.756989 1059.372681,399.756989 1064.037231,399.756989 
	C1064.037231,397.286041 1064.037231,395.134705 1064.753174,392.977448 
	C1066.223755,393.740784 1067.700562,394.492279 1069.163940,395.269165 
	C1094.510986,408.725220 1119.868652,422.161316 1145.194214,435.657623 
	C1152.340332,439.465912 1159.391357,443.452606 1165.904175,447.777710 
	C1150.596558,454.150085 1140.504150,464.771759 1139.258667,481.928131 
	C1138.042725,498.677460 1146.427979,510.422180 1159.981567,519.094482 
	C1169.488037,525.177185 1180.064697,528.382690 1190.935547,531.097107 
	C1200.864746,533.576294 1211.152466,535.771484 1220.234741,540.226929 
	C1234.725586,547.335693 1236.742920,565.174683 1225.510254,576.806274 
	C1211.764404,591.040344 1181.363770,591.828369 1166.829712,578.426453 
	C1158.337769,570.596191 1154.927368,560.713928 1154.815552,549.311401 
	C1148.196777,549.311401 1141.812134,549.311401 1134.672852,549.311401 
	C1135.699219,555.428284 1136.203613,561.245667 1137.696289,566.797363 
	C1141.994263,582.782654 1151.946045,594.443848 1167.421021,600.044128 
	C1191.649292,608.812378 1215.482544,607.830139 1236.393188,591.335022 
	C1259.872070,572.814087 1256.733032,539.991089 1230.776733,525.478271 
	C1219.756348,519.316528 1207.713257,516.196960 1195.400146,514.003967 
	C1184.956665,512.143921 1175.021484,509.135406 1166.865967,501.934204 
	C1154.261963,490.804718 1156.354370,472.763489 1171.202026,464.936584 
	C1178.592896,461.040466 1186.554077,459.689117 1195.231201,460.818176 
	C1203.235718,464.489685 1211.240356,468.161194 1219.778442,472.242126 
	C1223.156128,478.532440 1226.533813,484.822784 1230.264771,491.770996 
	C1235.333740,491.770996 1241.679565,491.770996 1248.124512,491.770996 
	C1248.124512,489.688995 1248.124512,487.875122 1248.806763,486.217438 
	C1250.497925,486.918793 1252.207886,487.578522 1253.877563,488.327728 
	C1284.855225,502.227081 1316.134888,515.365356 1348.814697,524.803162 
	C1364.948242,529.462463 1381.145752,533.979004 1398.166260,534.105347 
	C1409.360229,534.188354 1416.153442,530.800720 1417.882935,520.181885 
	C1418.040161,519.216492 1418.559937,518.306091 1418.938599,517.381287 
	C1437.668457,471.631744 1442.632568,424.093384 1436.758789,375.319183 
	C1432.286743,338.184998 1421.419434,302.797119 1405.404541,269.039490 
	C1372.744141,200.194977 1324.182495,144.860428 1262.087524,101.102837 
	C1255.708008,96.607300 1255.556030,98.387871 1259.591553,90.831757 
	C1262.047852,86.232735 1264.031006,81.656235 1270.305786,80.151619 
	C1282.741455,77.169601 1294.964966,73.272781 1307.193604,69.486954 
	C1309.350952,68.819031 1312.158203,67.248932 1312.851196,65.411346 
	C1314.997559,59.720272 1317.345093,53.759796 1317.681030,47.794975 
	C1318.750977,28.803238 1306.571411,12.257863 1288.424927,6.698278 
	C1270.649658,1.252448 1251.730713,8.454411 1241.456177,24.386915 
	C1239.573120,27.307056 1239.296387,30.026697 1240.281738,33.254528 
	C1244.264282,46.300983 1248.136230,59.381340 1251.991089,72.466240 
	C1252.400513,73.856354 1253.050537,75.653229 1252.526489,76.757294 
	C1250.350586,81.342758 1247.767090,85.734901 1245.499756,89.892448 
	C1244.350098,89.794617 1243.987549,89.849213 1243.700073,89.727188 
	C1214.650513,77.402817 1184.596191,68.463211 1153.574463,62.679806 
	C1113.554810,55.218914 1073.321899,53.694138 1032.851929,57.931747 
	C992.475830,62.159523 953.787598,72.455673 917.005798,89.809189 
	C868.923767,112.494019 829.483215,145.253128 799.859253,189.586411 
	C796.851501,194.087631 796.669800,198.819717 799.225037,203.264130 
	C802.441772,208.859055 805.723145,214.607620 810.002136,219.368103 
	C828.586304,240.043396 850.262146,257.119476 873.339600,272.502747 
	C882.303955,278.478302 891.080688,284.735168 899.030518,290.959686 
	C870.737244,289.751984 856.279846,308.548798 851.454956,325.990356 
	C847.798462,339.208008 847.764160,352.647034 851.231323,365.891418 
	C856.542542,386.180237 873.811646,400.566193 892.744934,400.998230 
	C918.562073,401.587433 935.479004,390.760681 942.544861,368.380310 
	C947.811523,351.698669 947.019104,335.011719 941.399109,318.577423 
	C942.730225,319.214539 944.136169,319.731537 945.381042,320.507141 
	C959.557190,329.339600 973.708679,338.211517 987.980103,347.995300 
	C987.980103,365.259216 987.980103,382.523102 987.980103,399.758240 
	C992.899780,399.758240 997.289795,399.758240 1002.083374,399.758240 
	C1002.083374,384.981323 1002.083374,370.519745 1002.739014,356.234253 
M1132.500000,814.998901 
	C1172.580933,814.998901 1212.661865,814.998901 1252.681152,814.998901 
	C1252.681152,809.936096 1252.681152,805.677368 1252.681152,801.401001 
	C837.329407,801.401001 422.295868,801.401001 7.319065,801.401001 
	C7.319065,806.063721 7.319065,810.322388 7.319065,814.998901 
	C382.257660,814.998901 756.878845,814.998901 1132.500000,814.998901 
M655.995911,512.541016 
	C673.986938,540.718506 691.961609,568.906494 710.013550,597.044861 
	C710.995056,598.574829 712.548767,600.717773 713.962463,600.819580 
	C719.869080,601.244629 725.824036,600.998657 731.746704,600.998657 
	C731.746704,549.068420 731.746704,497.665833 731.746704,446.287384 
	C725.251831,446.287384 719.023682,446.287384 712.176270,446.287384 
	C712.176270,486.361420 712.176270,526.143066 712.176270,567.256958 
	C710.490112,564.672852 709.591858,563.323486 708.720581,561.956909 
	C684.846985,524.513550 660.991211,487.058868 637.049377,449.659210 
	C636.096680,448.170990 634.397156,446.262024 632.932312,446.158936 
	C627.172119,445.753571 621.366638,445.992920 615.399231,445.992920 
	C615.399231,497.836334 615.399231,549.228943 615.399231,600.605347 
	C622.018311,600.605347 628.383362,600.605347 635.141602,600.605347 
	C635.141602,560.515869 635.141602,520.828674 635.141602,479.929932 
	C642.414490,491.290802 649.017395,501.605103 655.995911,512.541016 
M1058.500000,445.996094 
	C1031.550171,445.996094 1004.600342,445.996094 977.473267,445.996094 
	C977.473267,497.858673 977.473267,549.256104 977.473267,600.781128 
	C1013.137024,600.781128 1048.545532,600.781128 1083.980469,600.781128 
	C1083.980469,594.453796 1083.980469,588.385376 1083.980469,581.847290 
	C1054.831909,581.847290 1025.933472,581.847290 997.251099,581.847290 
	C997.251099,564.641296 997.251099,547.913025 997.251099,530.786255 
	C1023.181030,530.786255 1048.753296,530.786255 1074.277100,530.786255 
	C1074.277100,524.310547 1074.277100,518.246460 1074.277100,511.826660 
	C1048.334229,511.826660 1022.734863,511.826660 997.201660,511.826660 
	C997.201660,496.061676 997.201660,480.667603 997.201660,464.784271 
	C1026.389282,464.784271 1055.269653,464.784271 1084.051270,464.784271 
	C1084.051270,458.334198 1084.051270,452.379700 1084.051270,445.996094 
	C1075.750366,445.996094 1067.625122,445.996094 1058.500000,445.996094 
M543.487427,601.003845 
	C547.282898,601.003845 551.078369,601.003845 555.021057,601.003845 
	C555.021057,594.511658 555.021057,588.447632 555.021057,581.912964 
	C525.913391,581.912964 497.014709,581.912964 468.209839,581.912964 
	C468.209839,564.712708 468.209839,547.985901 468.209839,530.868591 
	C494.103821,530.868591 519.682190,530.868591 545.328491,530.868591 
	C545.328491,524.388489 545.328491,518.307678 545.328491,511.884552 
	C519.432983,511.884552 493.829346,511.884552 468.155945,511.884552 
	C468.155945,496.141235 468.155945,480.748383 468.155945,464.880310 
	C497.315857,464.880310 526.215027,464.880310 554.902588,464.880310 
	C554.902588,458.330292 554.902588,452.262207 554.902588,446.368591 
	C519.183716,446.368591 483.797485,446.368591 448.435272,446.368591 
	C448.435272,498.006989 448.435272,549.272583 448.435272,601.003845 
	C479.930481,601.003845 511.211334,601.003845 543.487427,601.003845 
M10.617680,548.994507 
	C8.523110,548.994507 6.428542,548.994507 3.646256,548.994507 
	C4.672514,555.349976 5.105262,561.034363 6.555357,566.446106 
	C10.884449,582.602356 20.849503,594.484619 36.544151,600.099792 
	C60.979645,608.842285 84.980080,607.835999 105.897064,590.912598 
	C128.796814,572.385071 125.544083,540.047363 100.045074,525.640747 
	C88.893082,519.339966 76.686897,516.206665 64.204903,513.972290 
	C53.935066,512.133911 44.163189,509.148376 36.087120,502.123169 
	C25.577803,492.981384 24.758183,478.048920 34.270279,469.074249 
	C51.808468,452.526917 83.735176,458.400543 93.914062,480.144348 
	C95.654205,483.861603 96.727783,487.890869 98.121185,491.784973 
	C104.383003,491.784973 110.644829,491.784973 117.156311,491.784973 
	C117.085472,473.185364 109.843613,458.485321 93.390190,450.202026 
	C71.456352,439.159637 48.718033,439.618591 27.390205,451.722992 
	C3.428598,465.322113 1.296920,496.145233 22.237232,514.083496 
	C33.148060,523.430176 46.286518,527.787842 60.018723,531.114624 
	C69.963821,533.523987 80.240959,535.800537 89.318031,540.271912 
	C103.774178,547.393005 105.719276,565.295044 94.433647,576.885376 
	C80.468430,591.227661 49.884193,591.740051 35.373661,577.990784 
	C27.131582,570.181091 23.946907,560.382019 23.792686,548.994507 
	C19.518209,548.994507 15.552081,548.994507 10.617680,548.994507 
M886.655518,471.853790 
	C892.806458,477.924469 895.905334,485.481812 897.090027,493.852386 
	C903.632629,493.852386 909.897766,493.852386 916.167786,493.852386 
	C915.750916,484.404358 912.366699,474.707764 906.385010,466.834351 
	C892.486938,448.541046 873.668945,441.115082 851.206482,443.320862 
	C827.189026,445.679321 811.010132,459.406067 802.096375,481.163239 
	C791.056091,508.110992 790.749756,535.804749 801.088867,562.991638 
	C809.561707,585.271301 825.550293,599.755371 849.986572,602.496826 
	C870.012573,604.743469 888.550842,600.788086 903.044617,585.433289 
	C912.887451,575.005676 916.612244,562.297180 916.267822,548.322021 
	C909.512695,548.322021 903.275757,548.322021 897.086487,548.322021 
	C895.100037,570.237488 883.968506,582.918945 863.958313,585.578796 
	C846.530396,587.895386 832.960876,580.830444 824.665344,565.777466 
	C808.932617,537.228821 808.989136,507.871643 825.163025,479.712982 
	C838.557983,456.392609 866.189453,453.264954 886.655518,471.853790 
M241.252686,585.929077 
	C221.813736,586.585938 209.984360,575.829163 202.074036,559.510193 
	C194.398102,543.674805 193.545212,526.816528 195.584152,509.710114 
	C197.188309,496.251526 201.642899,483.808228 210.575500,473.346344 
	C228.302383,452.584473 262.334778,456.779480 274.300354,481.265717 
	C276.228943,485.212372 277.178131,489.637604 278.563354,493.791534 
	C284.708374,493.791534 290.942902,493.791534 297.181824,493.791534 
	C296.576599,482.110840 291.392914,470.795532 283.220367,461.679016 
	C258.813568,434.453156 203.125336,433.091827 183.179504,480.866669 
	C171.888916,507.910187 171.484009,535.947021 182.164017,563.205017 
	C199.428604,607.268555 241.811493,608.978638 268.264587,596.974670 
	C287.424713,588.280090 299.559570,567.116455 296.891205,548.228210 
	C290.622925,548.228210 284.353088,548.228210 278.110474,548.228210 
	C275.890167,571.490723 264.215393,583.652771 241.252686,585.929077 
M307.014435,301.463684 
	C300.565857,295.676544 293.130585,292.781342 284.345398,292.939545 
	C271.850891,293.164581 259.349304,292.996674 246.850754,292.996613 
	C244.263336,292.996613 241.675903,292.996613 239.319275,292.996613 
	C239.319275,329.097565 239.319275,364.511078 239.319275,399.929535 
	C240.125519,399.991882 240.614960,400.063263 241.104324,400.062775 
	C256.268860,400.047333 271.447968,400.398499 286.590393,399.808990 
	C292.196167,399.590759 298.162659,398.059296 303.188263,395.563477 
	C316.518738,388.943329 322.579865,375.799622 318.869019,362.955139 
	C316.582428,355.040436 311.220795,349.366821 303.975555,345.354553 
	C319.390686,332.589050 320.637848,315.753448 307.014435,301.463684 
M496.998840,374.500000 
	C496.998840,382.927460 496.998840,391.354919 496.998840,399.671906 
	C501.957153,399.671906 506.349396,399.671906 511.201935,399.671906 
	C511.201935,384.963043 511.201935,370.582611 511.201935,356.074310 
	C518.987122,356.074310 526.302979,356.074097 533.618774,356.074463 
	C535.283813,356.074524 536.954773,355.985840 538.612976,356.092438 
	C549.274414,356.777740 561.391052,362.000854 560.144897,377.802307 
	C559.716980,383.228363 560.481567,388.770172 560.949768,394.237854 
	C561.283569,398.135834 562.979614,400.675049 567.637878,400.074005 
	C570.536682,399.699982 573.523071,400.004486 575.396851,400.004486 
	C574.920044,394.075867 573.943604,388.353790 574.107971,382.664642 
	C574.468262,370.191864 572.687256,358.749084 561.387512,350.734009 
	C568.334900,347.445007 573.187500,342.954559 576.046875,336.412292 
	C585.048767,315.816406 570.325195,293.398712 547.384705,293.035217 
	C534.899902,292.837402 522.409424,292.996918 509.921509,292.995575 
	C505.665649,292.995117 501.409821,292.995514 496.998840,292.995514 
	C496.998840,320.248810 496.998840,346.874420 496.998840,374.500000 
M357.032257,353.253510 
	C357.717896,357.333771 358.118652,361.486633 359.137299,365.481995 
	C364.185669,385.282074 380.702209,399.788696 399.286072,400.958740 
	C424.019989,402.515961 441.562744,392.293549 449.571472,371.189270 
	C454.773895,357.480011 455.011414,343.334869 451.966980,329.069244 
	C447.484619,308.065948 430.525360,292.393677 411.328094,290.988922 
	C381.519012,288.807587 367.010773,304.863586 360.422852,322.826050 
	C356.924194,332.365448 356.709229,342.311981 357.032257,353.253510 
M137.442047,318.886200 
	C128.671570,345.824982 119.901108,372.763733 111.009285,400.075287 
	C114.491531,400.075287 117.508659,399.817535 120.461655,400.142548 
	C123.912781,400.522369 125.303398,399.246735 126.275467,395.912750 
	C128.585526,387.989746 131.664444,380.291077 133.980133,372.369446 
	C135.031815,368.771729 136.824219,367.915009 140.318298,367.994965 
	C150.309097,368.223480 160.310013,368.171173 170.303528,368.013092 
	C173.063660,367.969452 174.384888,368.671448 175.190643,371.503143 
	C176.860306,377.370819 179.065659,383.084747 181.004440,388.877380 
	C184.871338,400.430878 184.858536,400.437714 197.172699,400.029022 
	C197.457199,400.019592 197.733856,399.773132 198.417236,399.441803 
	C186.836319,363.962189 175.239456,328.433685 163.671783,292.994659 
	C158.402908,292.994659 153.722351,292.760864 149.090607,293.133423 
	C147.652802,293.249084 145.591156,294.734283 145.106995,296.063171 
	C142.451645,303.351318 140.197723,310.785706 137.442047,318.886200 
M662.492676,368.075287 
	C665.992615,368.075287 669.502991,368.241486 672.989319,368.023773 
	C675.884460,367.842987 677.326904,368.611816 678.257446,371.680481 
	C680.843262,380.208252 683.881409,388.601807 686.888306,396.995575 
	C687.302002,398.150452 688.485840,399.784149 689.425903,399.863739 
	C693.278198,400.189819 697.174194,399.999908 700.958679,399.999908 
	C701.041016,399.174652 701.113403,398.990631 701.066162,398.845520 
	C689.832886,364.288635 678.608826,329.728729 667.258972,295.210175 
	C666.941772,294.245361 665.303284,293.142365 664.236389,293.094482 
	C659.254211,292.870758 654.256287,292.995178 648.931885,292.995178 
	C637.310486,328.605194 625.716187,364.132324 614.040405,399.908875 
	C618.936951,399.908875 623.256531,399.908875 627.863159,399.908875 
	C631.090332,390.383362 634.449402,380.896271 637.459961,371.299835 
	C638.275208,368.701233 639.433899,367.960541 641.996216,368.022888 
	C648.492310,368.180847 654.994812,368.075317 662.492676,368.075287 
M358.207520,517.499939 
	C358.207520,545.240906 358.207520,572.981812 358.207520,600.803589 
	C365.017731,600.803589 371.264587,600.803589 377.548584,600.803589 
	C377.548584,549.084351 377.548584,497.608154 377.548584,446.323181 
	C370.946564,446.323181 364.701813,446.323181 358.207520,446.323181 
	C358.207520,469.937897 358.207520,493.218872 358.207520,517.499939 
M784.793823,691.675537 
	C779.463806,678.250610 774.186462,664.804199 768.724426,651.433228 
	C768.162109,650.056580 766.606934,648.327393 765.322021,648.151367 
	C761.950012,647.689392 758.472717,647.995422 755.170593,647.995422 
	C755.170593,675.004822 755.170593,701.410950 755.170593,727.740601 
	C758.547424,727.740601 761.619690,727.740601 764.969849,727.740601 
	C764.969849,708.533997 764.969849,689.625305 764.969849,670.716614 
	C766.177002,671.615967 766.656860,672.759033 767.117554,673.909729 
	C773.596375,690.092834 780.286011,706.196533 786.423035,722.508301 
	C788.332214,727.582703 790.859253,729.348145 796.025513,727.502502 
	C803.672424,708.521790 811.359619,689.441101 819.046814,670.360474 
	C819.435242,670.470337 819.823608,670.580261 820.212036,670.690186 
	C820.212036,689.765686 820.212036,708.841187 820.212036,727.707397 
	C823.671936,727.707397 826.745422,727.707397 829.660583,727.707397 
	C829.660583,700.969299 829.660583,674.565369 829.660583,648.121216 
	C825.368530,648.121216 821.392639,648.121216 817.304443,648.121216 
	C809.089783,668.770935 800.903259,689.350037 792.374573,710.789368 
	C789.693115,704.084839 787.358521,698.247559 784.793823,691.675537 
M919.881287,656.386047 
	C906.538574,672.919617 905.936584,691.327515 913.690247,709.912415 
	C921.705261,729.123474 943.190613,735.432129 961.293701,725.071106 
	C962.998840,724.095154 964.679871,723.077148 966.266357,722.141113 
	C969.493958,724.301758 972.495239,726.311035 975.834534,728.546448 
	C977.714539,725.558838 979.435730,722.823608 981.218872,719.989990 
	C978.411316,717.831665 975.958496,715.946167 973.560486,714.102722 
	C981.235535,701.118469 983.251404,689.551331 979.871338,674.921814 
	C976.848083,661.836304 969.895081,651.535706 956.387817,647.634155 
	C943.088257,643.792603 930.689819,645.766602 919.881287,656.386047 
M53.702335,724.275574 
	C55.967331,722.400208 58.232323,720.524841 60.663326,718.512085 
	C61.200233,721.052307 61.700275,723.418152 62.192074,725.744995 
	C64.577888,725.744995 66.811440,725.744995 68.969810,725.744995 
	C68.969810,712.031799 68.969810,698.617493 68.969810,685.209351 
	C58.261772,685.209351 47.828056,685.209351 37.229462,685.209351 
	C37.229462,688.499084 37.229462,691.569519 37.229462,695.190063 
	C44.616463,695.190063 51.812767,695.190063 58.980072,695.190063 
	C58.971783,706.943848 53.573299,715.735107 44.842842,718.762878 
	C35.539494,721.989380 25.705269,719.042908 19.870810,711.281006 
	C10.677609,699.050781 10.924855,675.361755 20.371656,663.294006 
	C28.100224,653.421082 42.067120,651.959961 51.161015,660.609619 
	C54.495773,663.781555 56.606445,668.240356 59.554192,672.516357 
	C61.862030,672.255249 64.901932,671.911377 68.072746,671.552612 
	C67.935074,670.418030 67.938110,669.745972 67.765419,669.122620 
	C64.211609,656.295593 53.029755,646.986389 40.083080,646.052002 
	C25.035942,644.966125 12.805754,652.168640 7.167167,666.068726 
	C1.849878,679.176697 1.490134,692.696655 5.994451,706.099915 
	C12.960954,726.829590 33.689728,734.904236 53.702335,724.275574 
M607.921936,671.500000 
	C607.921936,684.139282 607.921936,696.778564 607.921936,709.417847 
	C595.200806,690.967773 583.438782,672.441406 571.677490,653.914551 
	C567.389343,647.159668 566.415833,646.783936 558.195435,648.615112 
	C558.195435,675.058411 558.195435,701.460571 558.195435,727.714355 
	C561.594849,727.714355 564.668884,727.714355 568.152405,727.714355 
	C568.152405,707.217224 568.152405,687.041992 568.152405,665.734802 
	C580.478210,685.066956 592.163940,703.391296 603.845337,721.718445 
	C608.497864,729.017883 609.031433,729.239990 617.675171,727.416748 
	C617.675171,700.992859 617.675171,674.590820 617.675171,648.283325 
	C614.286560,648.283325 611.206665,648.283325 607.921936,648.283325 
	C607.921936,655.880493 607.921936,663.190247 607.921936,671.500000 
M779.985413,335.500000 
	C779.985413,325.417236 779.985413,315.334503 779.985413,304.923401 
	C791.574158,304.923401 802.502014,304.923401 813.597656,304.923401 
	C813.597656,300.847778 813.597656,297.117218 813.597656,293.272705 
	C786.646179,293.272705 759.938477,293.272705 733.252197,293.272705 
	C733.252197,297.301544 733.252197,301.049286 733.252197,305.175903 
	C744.245239,305.175903 754.989685,305.175903 766.166138,305.175903 
	C766.166138,336.942719 766.166138,368.322418 766.166138,399.698059 
	C771.006897,399.698059 775.399353,399.698059 779.985413,399.698059 
	C779.985413,378.428894 779.985413,357.464447 779.985413,335.500000 
M373.937225,721.410522 
	C373.937225,712.667908 373.937225,703.925354 373.937225,695.055115 
	C381.610504,695.055115 388.597809,694.862610 395.570312,695.101440 
	C405.430511,695.439026 410.704498,701.008545 410.933533,710.873291 
	C410.983795,713.037354 411.011658,715.201904 411.062531,717.365967 
	C411.321259,728.370300 411.890808,728.869324 422.733154,727.708862 
	C418.391327,715.694641 425.877594,700.350830 413.094757,692.166992 
	C416.682495,687.536255 420.873077,683.887146 422.820709,679.288147 
	C428.987671,664.725769 419.193298,649.479187 402.604095,648.314880 
	C389.888458,647.422424 377.060028,648.137268 364.222717,648.137268 
	C364.222717,674.901245 364.222717,701.406555 364.222717,727.687378 
	C367.645966,727.687378 370.717255,727.687378 373.937225,727.687378 
	C373.937225,725.685242 373.937225,724.034119 373.937225,721.410522 
M722.666870,680.010864 
	C722.439819,678.698547 722.222351,677.384583 721.984375,676.074219 
	C718.827698,658.693848 705.812439,646.625000 689.585999,646.028198 
	C670.799500,645.337280 657.029480,654.892822 653.112915,673.159058 
	C651.276245,681.725098 651.102112,691.100647 652.379089,699.785156 
	C654.901184,716.938232 668.543762,728.447998 684.795532,728.976440 
	C703.457153,729.583313 716.745422,720.180542 721.074097,702.170898 
	C722.715088,695.343384 722.276367,688.015991 722.666870,680.010864 
M523.803772,674.845215 
	C523.319397,673.257385 522.877197,671.655273 522.344116,670.083923 
	C517.150391,654.774780 505.161987,646.032776 489.331268,645.991089 
	C473.099976,645.948364 461.012115,654.574219 455.750610,670.017700 
	C452.446838,679.714783 452.211823,689.621094 454.096985,699.599243 
	C457.312622,716.619263 470.371063,728.373474 486.583710,728.971313 
	C505.264099,729.660156 518.960205,720.332214 522.920227,702.343933 
	C524.802063,693.795959 523.695068,684.590027 523.803772,674.845215 
M78.999207,392.558960 
	C78.936012,391.119720 78.872826,389.680450 78.794029,387.885803 
	C60.053596,387.885803 41.639294,387.885803 22.820454,387.885803 
	C22.820454,356.115082 22.820454,324.717407 22.820454,293.285034 
	C18.008673,293.285034 13.612950,293.285034 9.280777,293.285034 
	C9.280777,328.971100 9.280777,364.368896 9.280777,399.724823 
	C32.630531,399.724823 55.699223,399.724823 78.999207,399.724823 
	C78.999207,397.476929 78.999207,395.500000 78.999207,392.558960 
M1137.500000,728.034546 
	C1146.264404,728.034546 1155.028809,728.034546 1163.662354,728.034546 
	C1163.662354,724.333313 1163.662354,721.259338 1163.662354,717.802856 
	C1148.608521,717.802856 1133.858765,717.802856 1119.269653,717.802856 
	C1119.269653,708.997864 1119.269653,700.598511 1119.269653,691.791748 
	C1132.680908,691.791748 1145.758423,691.791748 1158.640381,691.791748 
	C1158.640381,688.291565 1158.640381,685.217957 1158.640381,681.761658 
	C1145.229980,681.761658 1132.146118,681.761658 1119.291992,681.761658 
	C1119.291992,673.621948 1119.291992,665.887878 1119.291992,657.750244 
	C1134.392212,657.750244 1149.135132,657.750244 1163.618408,657.750244 
	C1163.618408,654.250366 1163.618408,651.177246 1163.618408,648.321533 
	C1145.177734,648.321533 1127.089844,648.321533 1109.214355,648.321533 
	C1109.214355,675.050903 1109.214355,701.456909 1109.214355,728.034546 
	C1118.530029,728.034546 1127.515015,728.034546 1137.500000,728.034546 
M1210.604370,656.746094 
	C1225.271484,652.181274 1233.337646,656.523987 1238.567383,671.841492 
	C1241.670166,671.841492 1244.786133,671.841492 1247.886963,671.841492 
	C1248.445312,661.169128 1243.156372,652.325623 1233.442383,648.458252 
	C1223.547852,644.519043 1213.453613,644.791748 1203.894653,649.413635 
	C1189.550293,656.349426 1187.676147,674.564209 1200.780518,683.611328 
	C1206.594238,687.625000 1214.017334,689.354736 1220.786011,691.920654 
	C1225.261475,693.617371 1230.175293,694.383362 1234.352783,696.589050 
	C1240.980591,700.088501 1242.137695,708.244019 1237.482056,714.145874 
	C1229.277588,724.546387 1208.802246,722.872498 1202.725708,711.134216 
	C1201.162720,708.114868 1200.601318,704.576904 1199.562256,701.220276 
	C1196.662354,701.220276 1193.546387,701.220276 1189.854614,701.220276 
	C1190.440430,704.579712 1190.664917,707.723877 1191.558350,710.664917 
	C1195.110352,722.357422 1203.629517,728.450745 1215.298828,729.693542 
	C1227.727417,731.017273 1239.514038,729.049988 1246.975342,717.455811 
	C1253.758911,706.915039 1250.921509,695.146362 1239.921021,689.341248 
	C1234.294800,686.372253 1227.794189,685.062927 1221.693726,682.989014 
	C1217.478149,681.555847 1212.879272,680.754944 1209.136719,678.523071 
	C1199.447266,672.744934 1199.963501,662.612305 1210.604370,656.746094 
M198.548706,724.005676 
	C210.554916,732.062012 227.882767,732.092163 238.927856,724.076050 
	C252.293793,714.375549 251.315170,696.020874 236.668808,688.641663 
	C231.275360,685.924316 225.011932,684.986023 219.274887,682.882812 
	C214.206406,681.024902 208.761658,679.445679 204.485275,676.356140 
	C198.582291,672.091553 198.845764,664.026672 204.031342,659.398987 
	C213.068268,651.334045 228.623184,654.248901 233.968353,665.077087 
	C235.041550,667.251160 235.724472,669.617859 236.549194,671.795044 
	C239.823212,671.795044 242.933868,671.795044 246.034485,671.795044 
	C246.157120,660.499939 240.738098,651.846558 230.834671,648.183411 
	C221.402863,644.694641 211.805832,644.910400 202.635086,649.065247 
	C187.402130,655.966675 185.418594,674.712402 199.337189,684.000122 
	C205.090714,687.839355 212.336227,689.484985 218.970337,691.947327 
	C223.308731,693.557556 228.039612,694.311523 232.110718,696.394836 
	C238.653992,699.743225 240.314407,707.638000 235.900864,713.455811 
	C230.291580,720.849854 222.213486,721.875916 213.827637,720.491089 
	C205.898819,719.181763 200.781586,714.309082 198.912598,706.329895 
	C198.507401,704.599854 198.199478,702.847046 197.882446,701.281006 
	C194.475693,701.281006 191.371613,701.281006 188.145798,701.281006 
	C188.400803,710.276489 191.079666,717.852295 198.548706,724.005676 
M1027.669922,713.756836 
	C1026.378906,710.277771 1024.567261,706.889465 1023.940796,703.294617 
	C1023.292603,699.574829 1023.793762,695.654724 1023.793701,691.822205 
	C1023.793335,677.365723 1023.793579,662.909241 1023.793579,648.222351 
	C1020.272522,648.222351 1017.167175,648.222351 1013.936890,648.222351 
	C1013.936890,668.067871 1013.528687,687.886475 1014.253723,707.663574 
	C1014.414185,712.039124 1017.799622,717.020203 1021.062866,720.410828 
	C1028.352905,727.985657 1038.027222,729.950684 1048.227905,728.803467 
	C1064.564087,726.966309 1073.843628,716.419556 1073.851196,700.068481 
	C1073.857422,686.737976 1073.852539,673.407532 1073.852539,660.077026 
	C1073.852539,656.134766 1073.852539,652.192566 1073.852539,648.227234 
	C1070.190674,648.227234 1067.103149,648.227234 1063.751709,648.227234 
	C1063.751709,666.281921 1063.792603,684.098572 1063.734741,701.914917 
	C1063.705322,710.964722 1059.322266,716.675537 1050.645752,718.977661 
	C1042.420166,721.160217 1034.814453,719.989563 1027.669922,713.756836 
M140.452530,661.893799 
	C138.960861,657.321899 137.469193,652.750061 136.002289,648.254028 
	C131.503326,648.254028 127.257561,648.254028 122.857536,648.254028 
	C114.197113,674.840942 105.598602,701.237732 96.929359,727.851685 
	C100.621002,727.851685 103.732918,727.851685 106.972542,727.851685 
	C109.683159,719.881531 112.349709,712.040955 115.029221,704.162292 
	C124.718529,704.162292 134.188751,704.162292 143.612213,704.162292 
	C143.828796,704.527466 144.051239,704.789551 144.153900,705.092346 
	C145.858963,710.121582 147.541595,715.158508 149.244064,720.188660 
	C152.008224,728.355713 152.012924,728.357727 160.911850,727.955933 
	C161.167816,727.944336 161.411972,727.671204 161.801056,727.435669 
	C154.797546,705.842896 147.788696,684.233704 140.452530,661.893799 
M333.940521,652.502563 
	C333.860229,651.072388 333.779938,649.642212 333.701569,648.245850 
	C313.584137,648.245850 293.830750,648.245850 274.070740,648.245850 
	C274.070740,651.244629 274.070740,653.983948 274.070740,657.189514 
	C282.370850,657.189514 290.432007,657.189514 298.912842,657.189514 
	C298.912842,681.058472 298.912842,704.452454 298.912842,727.683350 
	C302.433258,727.683350 305.504761,727.683350 308.842072,727.683350 
	C308.842072,704.057251 308.842072,680.788269 308.842072,657.042114 
	C316.243195,657.042114 323.365631,656.901367 330.477814,657.109985 
	C333.404053,657.195740 334.380859,656.178650 333.940521,652.502563 
M876.937073,667.500427 
	C876.937073,661.078369 876.937073,654.656372 876.937073,648.258179 
	C873.286987,648.258179 870.211670,648.258179 867.241089,648.258179 
	C867.241089,674.999268 867.241089,701.475281 867.241089,727.674805 
	C870.677429,727.674805 873.744568,727.674805 876.937073,727.674805 
	C876.937073,707.707214 876.937073,688.103760 876.937073,667.500427 
z"/>
<path fill="#ABA57C" opacity="1.000000" stroke="none" 
	d="
M987.866821,347.072876 
	C973.708679,338.211517 959.557190,329.339600 945.381042,320.507141 
	C944.136169,319.731537 942.730225,319.214539 940.739990,318.446899 
	C932.202515,301.122589 918.753052,292.074371 899.942932,290.863861 
	C891.080688,284.735168 882.303955,278.478302 873.339600,272.502747 
	C850.262146,257.119476 828.586304,240.043396 810.002136,219.368103 
	C805.723145,214.607620 802.441772,208.859055 799.225037,203.264130 
	C796.669800,198.819717 796.851501,194.087631 799.859253,189.586411 
	C829.483215,145.253128 868.923767,112.494019 917.005798,89.809189 
	C953.787598,72.455673 992.475830,62.159523 1032.851929,57.931747 
	C1073.321899,53.694138 1113.554810,55.218914 1153.574463,62.679806 
	C1184.596191,68.463211 1214.650513,77.402817 1243.700073,89.727188 
	C1243.987549,89.849213 1244.350098,89.794617 1245.499756,89.892448 
	C1247.767090,85.734901 1250.350586,81.342758 1252.526489,76.757294 
	C1253.050537,75.653229 1252.400513,73.856354 1251.991089,72.466240 
	C1248.136230,59.381340 1244.264282,46.300983 1240.281738,33.254528 
	C1239.296387,30.026697 1239.573120,27.307056 1241.456177,24.386915 
	C1251.730713,8.454411 1270.649658,1.252448 1288.424927,6.698278 
	C1306.571411,12.257863 1318.750977,28.803238 1317.681030,47.794975 
	C1317.345093,53.759796 1314.997559,59.720272 1312.851196,65.411346 
	C1312.158203,67.248932 1309.350952,68.819031 1307.193604,69.486954 
	C1294.964966,73.272781 1282.741455,77.169601 1270.305786,80.151619 
	C1264.031006,81.656235 1262.047852,86.232735 1259.591553,90.831757 
	C1255.556030,98.387871 1255.708008,96.607300 1262.087524,101.102837 
	C1324.182495,144.860428 1372.744141,200.194977 1405.404541,269.039490 
	C1421.419434,302.797119 1432.286743,338.184998 1436.758789,375.319183 
	C1442.632568,424.093384 1437.668457,471.631744 1418.938599,517.381287 
	C1418.559937,518.306091 1418.040161,519.216492 1417.882935,520.181885 
	C1416.153442,530.800720 1409.360229,534.188354 1398.166260,534.105347 
	C1381.145752,533.979004 1364.948242,529.462463 1348.814697,524.803162 
	C1316.134888,515.365356 1284.855225,502.227081 1253.877563,488.327728 
	C1252.207886,487.578522 1250.497925,486.918793 1248.334229,485.755554 
	C1246.796265,480.639099 1245.730713,475.984558 1245.039673,471.197479 
	C1251.012451,473.138489 1256.638306,475.140381 1262.203979,477.297638 
	C1291.025757,488.468903 1319.611938,500.302155 1348.736816,510.614960 
	C1363.342896,515.786743 1378.873779,518.432495 1394.098633,521.697449 
	C1397.094116,522.339844 1400.604126,520.582764 1403.876953,519.932312 
	C1402.672607,516.819336 1402.283325,512.894958 1400.127197,510.729767 
	C1388.991699,499.547394 1378.311768,487.611938 1365.791748,478.167816 
	C1336.446533,456.031952 1306.234497,435.036255 1276.172729,413.864044 
	C1267.509644,407.762756 1258.163452,402.631592 1249.051025,396.606567 
	C1248.971558,393.916626 1248.971558,391.675781 1248.971558,390.047150 
	C1243.229858,388.887756 1238.067505,387.845367 1232.674561,386.574890 
	C1226.819214,382.882324 1221.273193,379.281250 1215.551758,375.984924 
	C1206.694092,370.881958 1197.716553,365.987000 1188.527100,360.805969 
	C1183.880249,358.105804 1179.496216,355.603516 1174.900879,352.821503 
	C1165.375366,347.162323 1156.092041,341.728027 1146.734131,336.425171 
	C1141.605103,333.518768 1136.350586,330.834229 1130.979736,327.743896 
	C1126.449463,325.281830 1122.092163,323.125580 1117.426514,320.852509 
	C1107.373413,315.451324 1097.628662,310.166962 1087.676025,304.625977 
	C1079.631592,300.543793 1071.795044,296.718231 1063.825439,292.577881 
	C1052.860962,286.802734 1042.071655,281.257172 1031.191284,275.896484 
	C977.862549,249.621841 923.899231,224.774734 867.295654,206.279358 
	C852.659607,201.496994 837.428101,198.446030 822.339966,195.205811 
	C818.852234,194.456802 814.830078,196.196457 811.053833,196.790924 
	C812.736755,200.425980 813.865479,204.470734 816.197937,207.625488 
	C826.548218,221.624771 840.698120,231.585510 854.608276,241.485855 
	C890.407166,266.965118 926.599365,291.894745 962.791870,316.815369 
	C970.820618,322.343597 979.498047,326.929657 987.954224,332.413574 
	C987.976685,337.609406 987.921753,342.341156 987.866821,347.072876 
M1127.938599,311.499725 
	C1128.288330,311.664764 1128.638062,311.829803 1129.643311,312.233093 
	C1144.765869,320.816284 1159.888306,329.399475 1175.636230,338.264923 
	C1183.790771,342.905975 1191.945435,347.547028 1200.511230,352.695099 
	C1217.344604,362.729797 1234.534668,372.217773 1250.935913,382.915070 
	C1283.285156,404.014008 1315.452148,425.415314 1347.195679,447.411530 
	C1366.631470,460.879272 1384.990967,475.865845 1401.408569,493.030334 
	C1404.452515,496.212616 1407.284790,499.597137 1410.505737,503.214996 
	C1411.211304,501.489014 1411.708130,500.440979 1412.076050,499.349518 
	C1427.705688,452.971985 1429.510498,405.725433 1420.483521,357.924774 
	C1411.303955,309.317291 1392.024902,264.796448 1364.797974,223.656586 
	C1339.856567,185.969910 1309.417114,153.277054 1273.753784,125.572456 
	C1259.601196,114.578232 1245.689941,102.976883 1228.239868,97.127800 
	C1220.201782,94.433464 1212.289917,91.356453 1204.224731,88.750061 
	C1151.984131,71.867752 1098.561157,65.195564 1043.726562,69.656303 
	C1011.341309,72.290794 979.879639,78.833656 949.395874,89.967979 
	C908.955872,104.738876 872.870667,126.581337 842.469849,157.275070 
	C834.806702,165.012009 827.935608,173.533371 820.412292,182.019333 
	C821.810730,182.671082 822.211426,182.996246 822.639587,183.037613 
	C847.738159,185.461716 871.393127,193.468826 894.816040,202.112625 
	C949.865906,222.427795 1002.790344,247.550964 1055.238647,273.719574 
	C1068.186523,280.179840 1081.135254,286.638306 1094.274536,293.742310 
	C1103.746826,298.820343 1113.201294,303.932251 1122.708130,308.944641 
	C1124.388916,309.830872 1126.288452,310.302002 1128.015137,310.980804 
	C1128.015137,310.980804 1128.019897,310.907288 1127.938599,311.499725 
M1269.490723,18.570246 
	C1264.632080,21.604534 1259.626587,24.438730 1255.021118,27.817991 
	C1253.911743,28.631897 1253.423584,31.441795 1253.847290,33.010269 
	C1256.706299,43.596233 1259.914429,54.087433 1262.947021,64.627296 
	C1263.789795,67.556137 1265.119141,68.642769 1268.393066,67.611328 
	C1277.419189,64.767815 1286.570435,62.324280 1295.645630,59.632946 
	C1303.630493,57.264931 1304.830811,55.502602 1305.098511,46.953072 
	C1305.601807,30.879766 1291.525146,14.357568 1269.490723,18.570246 
z"/>
<path fill="#A9A278" opacity="1.000000" stroke="none" 
	d="
M1132.000000,814.998901 
	C756.878845,814.998901 382.257660,814.998901 7.319065,814.998901 
	C7.319065,810.322388 7.319065,806.063721 7.319065,801.401001 
	C422.295868,801.401001 837.329407,801.401001 1252.681152,801.401001 
	C1252.681152,805.677368 1252.681152,809.936096 1252.681152,814.998901 
	C1212.661865,814.998901 1172.580933,814.998901 1132.000000,814.998901 
z"/>
<path fill="#050505" opacity="1.000000" stroke="none" 
	d="
M655.808105,512.230225 
	C649.017395,501.605103 642.414490,491.290802 635.141602,479.929932 
	C635.141602,520.828674 635.141602,560.515869 635.141602,600.605347 
	C628.383362,600.605347 622.018311,600.605347 615.399231,600.605347 
	C615.399231,549.228943 615.399231,497.836334 615.399231,445.992920 
	C621.366638,445.992920 627.172119,445.753571 632.932312,446.158936 
	C634.397156,446.262024 636.096680,448.170990 637.049377,449.659210 
	C660.991211,487.058868 684.846985,524.513550 708.720581,561.956909 
	C709.591858,563.323486 710.490112,564.672852 712.176270,567.256958 
	C712.176270,526.143066 712.176270,486.361420 712.176270,446.287384 
	C719.023682,446.287384 725.251831,446.287384 731.746704,446.287384 
	C731.746704,497.665833 731.746704,549.068420 731.746704,600.998657 
	C725.824036,600.998657 719.869080,601.244629 713.962463,600.819580 
	C712.548767,600.717773 710.995056,598.574829 710.013550,597.044861 
	C691.961609,568.906494 673.986938,540.718506 655.808105,512.230225 
z"/>
<path fill="#020202" opacity="1.000000" stroke="none" 
	d="
M1059.000000,445.996094 
	C1067.625122,445.996094 1075.750366,445.996094 1084.051270,445.996094 
	C1084.051270,452.379700 1084.051270,458.334198 1084.051270,464.784271 
	C1055.269653,464.784271 1026.389282,464.784271 997.201660,464.784271 
	C997.201660,480.667603 997.201660,496.061676 997.201660,511.826660 
	C1022.734863,511.826660 1048.334229,511.826660 1074.277100,511.826660 
	C1074.277100,518.246460 1074.277100,524.310547 1074.277100,530.786255 
	C1048.753296,530.786255 1023.181030,530.786255 997.251099,530.786255 
	C997.251099,547.913025 997.251099,564.641296 997.251099,581.847290 
	C1025.933472,581.847290 1054.831909,581.847290 1083.980469,581.847290 
	C1083.980469,588.385376 1083.980469,594.453796 1083.980469,600.781128 
	C1048.545532,600.781128 1013.137024,600.781128 977.473267,600.781128 
	C977.473267,549.256104 977.473267,497.858673 977.473267,445.996094 
	C1004.600342,445.996094 1031.550171,445.996094 1059.000000,445.996094 
z"/>
<path fill="#020202" opacity="1.000000" stroke="none" 
	d="
M542.989807,601.003845 
	C511.211334,601.003845 479.930481,601.003845 448.435272,601.003845 
	C448.435272,549.272583 448.435272,498.006989 448.435272,446.368591 
	C483.797485,446.368591 519.183716,446.368591 554.902588,446.368591 
	C554.902588,452.262207 554.902588,458.330292 554.902588,464.880310 
	C526.215027,464.880310 497.315857,464.880310 468.155945,464.880310 
	C468.155945,480.748383 468.155945,496.141235 468.155945,511.884552 
	C493.829346,511.884552 519.432983,511.884552 545.328491,511.884552 
	C545.328491,518.307678 545.328491,524.388489 545.328491,530.868591 
	C519.682190,530.868591 494.103821,530.868591 468.209839,530.868591 
	C468.209839,547.985901 468.209839,564.712708 468.209839,581.912964 
	C497.014709,581.912964 525.913391,581.912964 555.021057,581.912964 
	C555.021057,588.447632 555.021057,594.511658 555.021057,601.003845 
	C551.078369,601.003845 547.282898,601.003845 542.989807,601.003845 
z"/>
<path fill="#030303" opacity="1.000000" stroke="none" 
	d="
M11.101816,548.994507 
	C15.552081,548.994507 19.518209,548.994507 23.792686,548.994507 
	C23.946907,560.382019 27.131582,570.181091 35.373661,577.990784 
	C49.884193,591.740051 80.468430,591.227661 94.433647,576.885376 
	C105.719276,565.295044 103.774178,547.393005 89.318031,540.271912 
	C80.240959,535.800537 69.963821,533.523987 60.018723,531.114624 
	C46.286518,527.787842 33.148060,523.430176 22.237232,514.083496 
	C1.296920,496.145233 3.428598,465.322113 27.390205,451.722992 
	C48.718033,439.618591 71.456352,439.159637 93.390190,450.202026 
	C109.843613,458.485321 117.085472,473.185364 117.156311,491.784973 
	C110.644829,491.784973 104.383003,491.784973 98.115234,491.780518 
	C96.727783,487.890869 95.654205,483.861603 93.914062,480.144348 
	C83.735176,458.400543 51.808468,452.526917 34.270279,469.074249 
	C24.758183,478.048920 25.577803,492.981384 36.087120,502.123169 
	C44.163189,509.148376 53.935066,512.133911 64.204903,513.972290 
	C76.686897,516.206665 88.893082,519.339966 100.045074,525.640747 
	C125.544083,540.047363 128.796814,572.385071 105.897064,590.912598 
	C84.980080,607.835999 60.979645,608.842285 36.544151,600.099792 
	C20.849503,594.484619 10.884449,582.602356 6.555357,566.446106 
	C5.105262,561.034363 4.672514,555.349976 3.646256,548.994507 
	C6.428542,548.994507 8.523110,548.994507 11.101816,548.994507 
z"/>
<path fill="#030303" opacity="1.000000" stroke="none" 
	d="
M1244.665039,471.330048 
	C1245.730713,475.984558 1246.796265,480.639099 1247.993164,485.677429 
	C1248.124512,487.875122 1248.124512,489.688995 1248.124512,491.770996 
	C1241.679565,491.770996 1235.333740,491.770996 1230.264771,491.770996 
	C1226.533813,484.822784 1223.156128,478.532440 1219.449219,471.698242 
	C1212.586426,464.065491 1204.682739,460.024475 1194.861328,460.250031 
	C1186.554077,459.689117 1178.592896,461.040466 1171.202026,464.936584 
	C1156.354370,472.763489 1154.261963,490.804718 1166.865967,501.934204 
	C1175.021484,509.135406 1184.956665,512.143921 1195.400146,514.003967 
	C1207.713257,516.196960 1219.756348,519.316528 1230.776733,525.478271 
	C1256.733032,539.991089 1259.872070,572.814087 1236.393188,591.335022 
	C1215.482544,607.830139 1191.649292,608.812378 1167.421021,600.044128 
	C1151.946045,594.443848 1141.994263,582.782654 1137.696289,566.797363 
	C1136.203613,561.245667 1135.699219,555.428284 1134.672852,549.311401 
	C1141.812134,549.311401 1148.196777,549.311401 1154.815552,549.311401 
	C1154.927368,560.713928 1158.337769,570.596191 1166.829712,578.426453 
	C1181.363770,591.828369 1211.764404,591.040344 1225.510254,576.806274 
	C1236.742920,565.174683 1234.725586,547.335693 1220.234741,540.226929 
	C1211.152466,535.771484 1200.864746,533.576294 1190.935547,531.097107 
	C1180.064697,528.382690 1169.488037,525.177185 1159.981567,519.094482 
	C1146.427979,510.422180 1138.042725,498.677460 1139.258667,481.928131 
	C1140.504150,464.771759 1150.596558,454.150085 1166.565674,447.525696 
	C1173.822266,445.841522 1180.417358,444.409363 1187.478271,443.011597 
	C1212.070679,442.006897 1232.539062,448.303406 1244.665039,471.330048 
z"/>
<path fill="#030303" opacity="1.000000" stroke="none" 
	d="
M886.401001,471.599548 
	C866.189453,453.264954 838.557983,456.392609 825.163025,479.712982 
	C808.989136,507.871643 808.932617,537.228821 824.665344,565.777466 
	C832.960876,580.830444 846.530396,587.895386 863.958313,585.578796 
	C883.968506,582.918945 895.100037,570.237488 897.086487,548.322021 
	C903.275757,548.322021 909.512695,548.322021 916.267822,548.322021 
	C916.612244,562.297180 912.887451,575.005676 903.044617,585.433289 
	C888.550842,600.788086 870.012573,604.743469 849.986572,602.496826 
	C825.550293,599.755371 809.561707,585.271301 801.088867,562.991638 
	C790.749756,535.804749 791.056091,508.110992 802.096375,481.163239 
	C811.010132,459.406067 827.189026,445.679321 851.206482,443.320862 
	C873.668945,441.115082 892.486938,448.541046 906.385010,466.834351 
	C912.366699,474.707764 915.750916,484.404358 916.167786,493.852386 
	C909.897766,493.852386 903.632629,493.852386 897.090027,493.852386 
	C895.905334,485.481812 892.806458,477.924469 886.401001,471.599548 
z"/>
<path fill="#030303" opacity="1.000000" stroke="none" 
	d="
M241.700439,585.915527 
	C264.215393,583.652771 275.890167,571.490723 278.110474,548.228210 
	C284.353088,548.228210 290.622925,548.228210 296.891205,548.228210 
	C299.559570,567.116455 287.424713,588.280090 268.264587,596.974670 
	C241.811493,608.978638 199.428604,607.268555 182.164017,563.205017 
	C171.484009,535.947021 171.888916,507.910187 183.179504,480.866669 
	C203.125336,433.091827 258.813568,434.453156 283.220367,461.679016 
	C291.392914,470.795532 296.576599,482.110840 297.181824,493.791534 
	C290.942902,493.791534 284.708374,493.791534 278.563354,493.791534 
	C277.178131,489.637604 276.228943,485.212372 274.300354,481.265717 
	C262.334778,456.779480 228.302383,452.584473 210.575500,473.346344 
	C201.642899,483.808228 197.188309,496.251526 195.584152,509.710114 
	C193.545212,526.816528 194.398102,543.674805 202.074036,559.510193 
	C209.984360,575.829163 221.813736,586.585938 241.700439,585.915527 
z"/>
<path fill="#020202" opacity="1.000000" stroke="none" 
	d="
M307.269287,301.717896 
	C320.637848,315.753448 319.390686,332.589050 303.975555,345.354553 
	C311.220795,349.366821 316.582428,355.040436 318.869019,362.955139 
	C322.579865,375.799622 316.518738,388.943329 303.188263,395.563477 
	C298.162659,398.059296 292.196167,399.590759 286.590393,399.808990 
	C271.447968,400.398499 256.268860,400.047333 241.104324,400.062775 
	C240.614960,400.063263 240.125519,399.991882 239.319275,399.929535 
	C239.319275,364.511078 239.319275,329.097565 239.319275,292.996613 
	C241.675903,292.996613 244.263336,292.996613 246.850754,292.996613 
	C259.349304,292.996674 271.850891,293.164581 284.345398,292.939545 
	C293.130585,292.781342 300.565857,295.676544 307.269287,301.717896 
M291.145142,387.013947 
	C301.672150,383.287842 306.649597,377.072601 305.992523,368.474304 
	C305.348969,360.052887 298.687500,352.684875 288.392761,351.788849 
	C276.743469,350.774933 264.937988,351.555023 253.218842,351.555023 
	C253.218842,363.679321 253.218842,375.727448 253.218842,387.085968 
	C265.784851,387.085968 278.046356,387.085968 291.145142,387.013947 
M295.738007,335.389160 
	C302.069305,331.049072 303.608612,324.939545 301.899994,317.856293 
	C300.340942,311.393188 293.625275,305.596619 286.158142,305.270599 
	C275.235046,304.793762 264.275635,305.147980 253.162018,305.147980 
	C253.162018,316.562958 253.162018,327.615479 253.162018,338.905121 
	C264.189178,338.905121 274.986450,339.132111 285.763397,338.764130 
	C288.915680,338.656464 292.010132,336.855804 295.738007,335.389160 
z"/>
<path fill="#030303" opacity="1.000000" stroke="none" 
	d="
M496.998840,374.000000 
	C496.998840,346.874420 496.998840,320.248810 496.998840,292.995514 
	C501.409821,292.995514 505.665649,292.995117 509.921509,292.995575 
	C522.409424,292.996918 534.899902,292.837402 547.384705,293.035217 
	C570.325195,293.398712 585.048767,315.816406 576.046875,336.412292 
	C573.187500,342.954559 568.334900,347.445007 561.387512,350.734009 
	C572.687256,358.749084 574.468262,370.191864 574.107971,382.664642 
	C573.943604,388.353790 574.920044,394.075867 575.396851,400.004486 
	C573.523071,400.004486 570.536682,399.699982 567.637878,400.074005 
	C562.979614,400.675049 561.283569,398.135834 560.949768,394.237854 
	C560.481567,388.770172 559.716980,383.228363 560.144897,377.802307 
	C561.391052,362.000854 549.274414,356.777740 538.612976,356.092438 
	C536.954773,355.985840 535.283813,356.074524 533.618774,356.074463 
	C526.302979,356.074097 518.987122,356.074310 511.201935,356.074310 
	C511.201935,370.582611 511.201935,384.963043 511.201935,399.671906 
	C506.349396,399.671906 501.957153,399.671906 496.998840,399.671906 
	C496.998840,391.354919 496.998840,382.927460 496.998840,374.000000 
M549.319641,343.087463 
	C559.352417,340.645416 565.008057,333.714386 564.811157,324.102478 
	C564.610962,314.332397 558.815125,306.843323 548.543457,306.036865 
	C536.225769,305.069763 523.774170,305.808411 511.149841,305.808411 
	C511.149841,318.175079 511.149841,330.874756 511.149841,343.204010 
	C523.697632,343.204010 536.087158,343.204010 549.319641,343.087463 
z"/>
<path fill="#040404" opacity="1.000000" stroke="none" 
	d="
M357.021545,352.779419 
	C356.709229,342.311981 356.924194,332.365448 360.422852,322.826050 
	C367.010773,304.863586 381.519012,288.807587 411.328094,290.988922 
	C430.525360,292.393677 447.484619,308.065948 451.966980,329.069244 
	C455.011414,343.334869 454.773895,357.480011 449.571472,371.189270 
	C441.562744,392.293549 424.019989,402.515961 399.286072,400.958740 
	C380.702209,399.788696 364.185669,385.282074 359.137299,365.481995 
	C358.118652,361.486633 357.717896,357.333771 357.021545,352.779419 
M376.477905,371.870789 
	C383.303101,383.931946 393.864624,389.508087 407.467712,388.746765 
	C421.929169,387.937378 431.525513,379.893005 436.440857,366.582550 
	C441.638794,352.506622 441.493561,338.145264 435.819214,324.269012 
	C430.369659,310.942413 420.213806,303.202911 405.501251,303.173920 
	C390.873199,303.145081 380.397705,310.461975 374.991455,323.914612 
	C368.655975,339.679443 369.001709,355.612244 376.477905,371.870789 
z"/>
<path fill="#040404" opacity="1.000000" stroke="none" 
	d="
M899.486694,290.911774 
	C918.753052,292.074371 932.202515,301.122589 940.336426,318.491821 
	C947.019104,335.011719 947.811523,351.698669 942.544861,368.380310 
	C935.479004,390.760681 918.562073,401.587433 892.744934,400.998230 
	C873.811646,400.566193 856.542542,386.180237 851.231323,365.891418 
	C847.764160,352.647034 847.798462,339.208008 851.454956,325.990356 
	C856.279846,308.548798 870.737244,289.751984 899.486694,290.911774 
M926.625916,370.941467 
	C928.317688,364.745911 930.804443,358.642273 931.533630,352.335419 
	C932.994690,339.697693 931.168701,327.415497 923.631958,316.683258 
	C911.297363,299.118927 885.484985,298.311676 872.176453,315.173645 
	C861.516968,328.679291 861.293884,344.420349 864.188232,360.278168 
	C867.131592,376.404694 877.802063,386.215149 893.474121,388.618591 
	C906.636536,390.637146 918.876465,384.241943 926.625916,370.941467 
z"/>
<path fill="#030303" opacity="1.000000" stroke="none" 
	d="
M137.623993,318.528046 
	C140.197723,310.785706 142.451645,303.351318 145.106995,296.063171 
	C145.591156,294.734283 147.652802,293.249084 149.090607,293.133423 
	C153.722351,292.760864 158.402908,292.994659 163.671783,292.994659 
	C175.239456,328.433685 186.836319,363.962189 198.417236,399.441803 
	C197.733856,399.773132 197.457199,400.019592 197.172699,400.029022 
	C184.858536,400.437714 184.871338,400.430878 181.004440,388.877380 
	C179.065659,383.084747 176.860306,377.370819 175.190643,371.503143 
	C174.384888,368.671448 173.063660,367.969452 170.303528,368.013092 
	C160.310013,368.171173 150.309097,368.223480 140.318298,367.994965 
	C136.824219,367.915009 135.031815,368.771729 133.980133,372.369446 
	C131.664444,380.291077 128.585526,387.989746 126.275467,395.912750 
	C125.303398,399.246735 123.912781,400.522369 120.461655,400.142548 
	C117.508659,399.817535 114.491531,400.075287 111.009285,400.075287 
	C119.901108,372.763733 128.671570,345.824982 137.623993,318.528046 
M144.005112,342.515778 
	C142.586792,346.866302 141.168457,351.216797 139.683289,355.772369 
	C150.001358,355.772369 159.858383,355.772369 170.042679,355.772369 
	C165.015350,340.904083 160.091766,326.342651 154.815384,310.737793 
	C151.010666,321.882599 147.619171,331.817017 144.005112,342.515778 
z"/>
<path fill="#030303" opacity="1.000000" stroke="none" 
	d="
M661.993713,368.075287 
	C654.994812,368.075317 648.492310,368.180847 641.996216,368.022888 
	C639.433899,367.960541 638.275208,368.701233 637.459961,371.299835 
	C634.449402,380.896271 631.090332,390.383362 627.863159,399.908875 
	C623.256531,399.908875 618.936951,399.908875 614.040405,399.908875 
	C625.716187,364.132324 637.310486,328.605194 648.931885,292.995178 
	C654.256287,292.995178 659.254211,292.870758 664.236389,293.094482 
	C665.303284,293.142365 666.941772,294.245361 667.258972,295.210175 
	C678.608826,329.728729 689.832886,364.288635 701.066162,398.845520 
	C701.113403,398.990631 701.041016,399.174652 700.958679,399.999908 
	C697.174194,399.999908 693.278198,400.189819 689.425903,399.863739 
	C688.485840,399.784149 687.302002,398.150452 686.888306,396.995575 
	C683.881409,388.601807 680.843262,380.208252 678.257446,371.680481 
	C677.326904,368.611816 675.884460,367.842987 672.989319,368.023773 
	C669.502991,368.241486 665.992615,368.075287 661.993713,368.075287 
M654.692871,320.094910 
	C650.680481,331.905792 646.668091,343.716705 642.572449,355.772766 
	C653.000916,355.772766 662.858093,355.772766 673.042664,355.772766 
	C668.015198,340.903870 663.091309,326.341339 657.796936,310.683167 
	C656.562561,314.404663 655.744446,316.871155 654.692871,320.094910 
z"/>
<path fill="#040404" opacity="1.000000" stroke="none" 
	d="
M1117.734863,320.969299 
	C1122.092163,323.125580 1126.449463,325.281830 1130.923828,328.138123 
	C1129.493896,338.881409 1123.941895,346.000183 1114.821533,350.632721 
	C1116.498413,352.295471 1118.092529,353.728912 1119.517212,355.314667 
	C1125.272339,361.720642 1127.042358,369.378937 1127.047241,377.821503 
	C1127.051514,385.180603 1127.783691,392.539246 1128.204102,400.076141 
	C1126.866943,400.076141 1124.224487,400.076843 1121.582031,400.076019 
	C1115.450073,400.074127 1114.352661,399.304749 1113.817749,393.244751 
	C1113.306641,387.454468 1113.143921,381.625031 1113.040405,375.809021 
	C1112.856079,365.457916 1107.441895,358.085815 1097.042847,357.139740 
	C1086.230713,356.156097 1075.259644,356.920471 1064.199097,356.920471 
	C1064.199097,363.934906 1064.199097,371.366119 1064.027344,379.248108 
	C1063.916138,384.127045 1063.976562,388.555206 1064.037109,392.983368 
	C1064.037231,395.134705 1064.037231,397.286041 1064.037231,399.756989 
	C1059.372681,399.756989 1054.963745,399.756989 1049.959473,399.756989 
	C1049.959473,394.913086 1049.959473,389.976257 1049.992065,384.117004 
	C1049.965332,378.428406 1049.906128,373.662201 1049.904419,368.437073 
	C1049.961914,343.086670 1049.961914,318.195190 1049.961914,292.892700 
	C1055.037231,292.892700 1059.497925,292.892700 1063.958496,292.892700 
	C1071.795044,296.718231 1079.631592,300.543793 1087.215698,304.650543 
	C1079.338379,304.931763 1071.713623,304.931763 1063.963501,304.931763 
	C1063.963501,318.214966 1063.963501,330.937653 1063.963501,343.972382 
	C1075.014648,343.972382 1085.820190,344.095490 1096.621826,343.942078 
	C1111.031006,343.737518 1118.507080,335.498169 1117.734863,320.969299 
z"/>
<path fill="#060606" opacity="1.000000" stroke="none" 
	d="
M358.207520,516.999878 
	C358.207520,493.218872 358.207520,469.937897 358.207520,446.323181 
	C364.701813,446.323181 370.946564,446.323181 377.548584,446.323181 
	C377.548584,497.608154 377.548584,549.084351 377.548584,600.803589 
	C371.264587,600.803589 365.017731,600.803589 358.207520,600.803589 
	C358.207520,572.981812 358.207520,545.240906 358.207520,516.999878 
z"/>
<path fill="#040404" opacity="1.000000" stroke="none" 
	d="
M784.908813,692.042969 
	C787.358521,698.247559 789.693115,704.084839 792.374573,710.789368 
	C800.903259,689.350037 809.089783,668.770935 817.304443,648.121216 
	C821.392639,648.121216 825.368530,648.121216 829.660583,648.121216 
	C829.660583,674.565369 829.660583,700.969299 829.660583,727.707397 
	C826.745422,727.707397 823.671936,727.707397 820.212036,727.707397 
	C820.212036,708.841187 820.212036,689.765686 820.212036,670.690186 
	C819.823608,670.580261 819.435242,670.470337 819.046814,670.360474 
	C811.359619,689.441101 803.672424,708.521790 796.025513,727.502502 
	C790.859253,729.348145 788.332214,727.582703 786.423035,722.508301 
	C780.286011,706.196533 773.596375,690.092834 767.117554,673.909729 
	C766.656860,672.759033 766.177002,671.615967 764.969849,670.716614 
	C764.969849,689.625305 764.969849,708.533997 764.969849,727.740601 
	C761.619690,727.740601 758.547424,727.740601 755.170593,727.740601 
	C755.170593,701.410950 755.170593,675.004822 755.170593,647.995422 
	C758.472717,647.995422 761.950012,647.689392 765.322021,648.151367 
	C766.606934,648.327393 768.162109,650.056580 768.724426,651.433228 
	C774.186462,664.804199 779.463806,678.250610 784.908813,692.042969 
z"/>
<path fill="#060606" opacity="1.000000" stroke="none" 
	d="
M920.122559,656.125244 
	C930.689819,645.766602 943.088257,643.792603 956.387817,647.634155 
	C969.895081,651.535706 976.848083,661.836304 979.871338,674.921814 
	C983.251404,689.551331 981.235535,701.118469 973.560486,714.102722 
	C975.958496,715.946167 978.411316,717.831665 981.218872,719.989990 
	C979.435730,722.823608 977.714539,725.558838 975.834534,728.546448 
	C972.495239,726.311035 969.493958,724.301758 966.266357,722.141113 
	C964.679871,723.077148 962.998840,724.095154 961.293701,725.071106 
	C943.190613,735.432129 921.705261,729.123474 913.690247,709.912415 
	C905.936584,691.327515 906.538574,672.919617 920.122559,656.125244 
M939.544250,655.715759 
	C933.112000,656.980835 928.427246,660.740173 924.877686,666.070129 
	C917.096130,677.754883 917.341125,698.570129 925.134705,710.280762 
	C931.422302,719.728455 945.999634,725.915222 958.303650,714.815063 
	C956.047791,713.301392 953.835571,711.817017 951.565491,710.293823 
	C954.595276,706.935669 956.891296,704.390808 959.174011,701.860718 
	C961.702148,703.970947 963.838806,705.754517 965.990784,707.550781 
	C971.308289,700.363892 972.742981,687.835266 969.839050,676.000549 
	C966.204041,661.186462 955.157043,653.504517 939.544250,655.715759 
z"/>
<path fill="#050505" opacity="1.000000" stroke="none" 
	d="
M53.407444,724.497559 
	C33.689728,734.904236 12.960954,726.829590 5.994451,706.099915 
	C1.490134,692.696655 1.849878,679.176697 7.167167,666.068726 
	C12.805754,652.168640 25.035942,644.966125 40.083080,646.052002 
	C53.029755,646.986389 64.211609,656.295593 67.765419,669.122620 
	C67.938110,669.745972 67.935074,670.418030 68.072746,671.552612 
	C64.901932,671.911377 61.862030,672.255249 59.554192,672.516357 
	C56.606445,668.240356 54.495773,663.781555 51.161015,660.609619 
	C42.067120,651.959961 28.100224,653.421082 20.371656,663.294006 
	C10.924855,675.361755 10.677609,699.050781 19.870810,711.281006 
	C25.705269,719.042908 35.539494,721.989380 44.842842,718.762878 
	C53.573299,715.735107 58.971783,706.943848 58.980072,695.190063 
	C51.812767,695.190063 44.616463,695.190063 37.229462,695.190063 
	C37.229462,691.569519 37.229462,688.499084 37.229462,685.209351 
	C47.828056,685.209351 58.261772,685.209351 68.969810,685.209351 
	C68.969810,698.617493 68.969810,712.031799 68.969810,725.744995 
	C66.811440,725.744995 64.577888,725.744995 62.192074,725.744995 
	C61.700275,723.418152 61.200233,721.052307 60.663326,718.512085 
	C58.232323,720.524841 55.967331,722.400208 53.407444,724.497559 
z"/>
<path fill="#030303" opacity="1.000000" stroke="none" 
	d="
M607.921936,671.000000 
	C607.921936,663.190247 607.921936,655.880493 607.921936,648.283325 
	C611.206665,648.283325 614.286560,648.283325 617.675171,648.283325 
	C617.675171,674.590820 617.675171,700.992859 617.675171,727.416748 
	C609.031433,729.239990 608.497864,729.017883 603.845337,721.718445 
	C592.163940,703.391296 580.478210,685.066956 568.152405,665.734802 
	C568.152405,687.041992 568.152405,707.217224 568.152405,727.714355 
	C564.668884,727.714355 561.594849,727.714355 558.195435,727.714355 
	C558.195435,701.460571 558.195435,675.058411 558.195435,648.615112 
	C566.415833,646.783936 567.389343,647.159668 571.677490,653.914551 
	C583.438782,672.441406 595.200806,690.967773 607.921936,709.417847 
	C607.921936,696.778564 607.921936,684.139282 607.921936,671.000000 
z"/>
<path fill="#020202" opacity="1.000000" stroke="none" 
	d="
M779.985413,336.000000 
	C779.985413,357.464447 779.985413,378.428894 779.985413,399.698059 
	C775.399353,399.698059 771.006897,399.698059 766.166138,399.698059 
	C766.166138,368.322418 766.166138,336.942719 766.166138,305.175903 
	C754.989685,305.175903 744.245239,305.175903 733.252197,305.175903 
	C733.252197,301.049286 733.252197,297.301544 733.252197,293.272705 
	C759.938477,293.272705 786.646179,293.272705 813.597656,293.272705 
	C813.597656,297.117218 813.597656,300.847778 813.597656,304.923401 
	C802.502014,304.923401 791.574158,304.923401 779.985413,304.923401 
	C779.985413,315.334503 779.985413,325.417236 779.985413,336.000000 
z"/>
<path fill="#030303" opacity="1.000000" stroke="none" 
	d="
M373.937225,721.896790 
	C373.937225,724.034119 373.937225,725.685242 373.937225,727.687378 
	C370.717255,727.687378 367.645966,727.687378 364.222717,727.687378 
	C364.222717,701.406555 364.222717,674.901245 364.222717,648.137268 
	C377.060028,648.137268 389.888458,647.422424 402.604095,648.314880 
	C419.193298,649.479187 428.987671,664.725769 422.820709,679.288147 
	C420.873077,683.887146 416.682495,687.536255 413.094757,692.166992 
	C425.877594,700.350830 418.391327,715.694641 422.733154,727.708862 
	C411.890808,728.869324 411.321259,728.370300 411.062531,717.365967 
	C411.011658,715.201904 410.983795,713.037354 410.933533,710.873291 
	C410.704498,701.008545 405.430511,695.439026 395.570312,695.101440 
	C388.597809,694.862610 381.610504,695.055115 373.937225,695.055115 
	C373.937225,703.925354 373.937225,712.667908 373.937225,721.896790 
M373.934692,682.364014 
	C374.091980,683.993896 373.115570,686.116150 376.322479,686.044006 
	C384.480469,685.860413 392.665894,686.281128 400.799225,685.785522 
	C409.219116,685.272400 414.276306,679.458984 414.276978,671.384460 
	C414.277618,663.613281 409.297729,657.757874 401.090790,657.267578 
	C392.180908,656.735413 383.214691,657.146912 373.934692,657.146912 
	C373.934692,665.470947 373.934692,673.430664 373.934692,682.364014 
z"/>
<path fill="#050505" opacity="1.000000" stroke="none" 
	d="
M722.726196,680.463623 
	C722.276367,688.015991 722.715088,695.343384 721.074097,702.170898 
	C716.745422,720.180542 703.457153,729.583313 684.795532,728.976440 
	C668.543762,728.447998 654.901184,716.938232 652.379089,699.785156 
	C651.102112,691.100647 651.276245,681.725098 653.112915,673.159058 
	C657.029480,654.892822 670.799500,645.337280 689.585999,646.028198 
	C705.812439,646.625000 718.827698,658.693848 721.984375,676.074219 
	C722.222351,677.384583 722.439819,678.698547 722.726196,680.463623 
M706.597290,664.989258 
	C694.015198,649.388916 671.911926,652.322815 664.209473,670.816956 
	C659.892273,681.183105 659.811340,691.954773 663.442200,702.566589 
	C667.262146,713.730591 675.932312,719.938110 687.024841,719.958252 
	C698.081238,719.978333 706.980347,713.796509 710.589905,702.586548 
	C714.681580,689.879517 714.281311,677.338745 706.597290,664.989258 
z"/>
<path fill="#050505" opacity="1.000000" stroke="none" 
	d="
M523.872864,675.263672 
	C523.695068,684.590027 524.802063,693.795959 522.920227,702.343933 
	C518.960205,720.332214 505.264099,729.660156 486.583710,728.971313 
	C470.371063,728.373474 457.312622,716.619263 454.096985,699.599243 
	C452.211823,689.621094 452.446838,679.714783 455.750610,670.017700 
	C461.012115,654.574219 473.099976,645.948364 489.331268,645.991089 
	C505.161987,646.032776 517.150391,654.774780 522.344116,670.083923 
	C522.877197,671.655273 523.319397,673.257385 523.872864,675.263672 
M468.494080,708.872681 
	C474.364868,717.735840 482.804199,721.093018 493.049133,719.656006 
	C503.364258,718.208984 509.627716,711.572021 512.804138,702.082214 
	C516.067932,692.331482 515.944641,682.379944 512.589783,672.645203 
	C508.735016,661.460144 499.994965,655.058472 489.127747,655.041748 
	C478.180969,655.024902 469.394501,661.262329 465.595612,672.506104 
	C461.487488,684.665161 461.829315,696.712891 468.494080,708.872681 
z"/>
<path fill="#020202" opacity="1.000000" stroke="none" 
	d="
M78.999207,393.041016 
	C78.999207,395.500000 78.999207,397.476929 78.999207,399.724823 
	C55.699223,399.724823 32.630531,399.724823 9.280777,399.724823 
	C9.280777,364.368896 9.280777,328.971100 9.280777,293.285034 
	C13.612950,293.285034 18.008673,293.285034 22.820454,293.285034 
	C22.820454,324.717407 22.820454,356.115082 22.820454,387.885803 
	C41.639294,387.885803 60.053596,387.885803 78.794029,387.885803 
	C78.872826,389.680450 78.936012,391.119720 78.999207,393.041016 
z"/>
<path fill="#010101" opacity="1.000000" stroke="none" 
	d="
M1137.000000,728.034546 
	C1127.515015,728.034546 1118.530029,728.034546 1109.214355,728.034546 
	C1109.214355,701.456909 1109.214355,675.050903 1109.214355,648.321533 
	C1127.089844,648.321533 1145.177734,648.321533 1163.618408,648.321533 
	C1163.618408,651.177246 1163.618408,654.250366 1163.618408,657.750244 
	C1149.135132,657.750244 1134.392212,657.750244 1119.291992,657.750244 
	C1119.291992,665.887878 1119.291992,673.621948 1119.291992,681.761658 
	C1132.146118,681.761658 1145.229980,681.761658 1158.640381,681.761658 
	C1158.640381,685.217957 1158.640381,688.291565 1158.640381,691.791748 
	C1145.758423,691.791748 1132.680908,691.791748 1119.269653,691.791748 
	C1119.269653,700.598511 1119.269653,708.997864 1119.269653,717.802856 
	C1133.858765,717.802856 1148.608521,717.802856 1163.662354,717.802856 
	C1163.662354,721.259338 1163.662354,724.333313 1163.662354,728.034546 
	C1155.028809,728.034546 1146.264404,728.034546 1137.000000,728.034546 
z"/>
<path fill="#060606" opacity="1.000000" stroke="none" 
	d="
M1210.232056,656.875305 
	C1199.963501,662.612305 1199.447266,672.744934 1209.136719,678.523071 
	C1212.879272,680.754944 1217.478149,681.555847 1221.693726,682.989014 
	C1227.794189,685.062927 1234.294800,686.372253 1239.921021,689.341248 
	C1250.921509,695.146362 1253.758911,706.915039 1246.975342,717.455811 
	C1239.514038,729.049988 1227.727417,731.017273 1215.298828,729.693542 
	C1203.629517,728.450745 1195.110352,722.357422 1191.558350,710.664917 
	C1190.664917,707.723877 1190.440430,704.579712 1189.854614,701.220276 
	C1193.546387,701.220276 1196.662354,701.220276 1199.562256,701.220276 
	C1200.601318,704.576904 1201.162720,708.114868 1202.725708,711.134216 
	C1208.802246,722.872498 1229.277588,724.546387 1237.482056,714.145874 
	C1242.137695,708.244019 1240.980591,700.088501 1234.352783,696.589050 
	C1230.175293,694.383362 1225.261475,693.617371 1220.786011,691.920654 
	C1214.017334,689.354736 1206.594238,687.625000 1200.780518,683.611328 
	C1187.676147,674.564209 1189.550293,656.349426 1203.894653,649.413635 
	C1213.453613,644.791748 1223.547852,644.519043 1233.442383,648.458252 
	C1243.156372,652.325623 1248.445312,661.169128 1247.886963,671.841492 
	C1244.786133,671.841492 1241.670166,671.841492 1238.567383,671.841492 
	C1233.337646,656.523987 1225.271484,652.181274 1210.232056,656.875305 
z"/>
<path fill="#060606" opacity="1.000000" stroke="none" 
	d="
M198.265503,723.784912 
	C191.079666,717.852295 188.400803,710.276489 188.145798,701.281006 
	C191.371613,701.281006 194.475693,701.281006 197.882446,701.281006 
	C198.199478,702.847046 198.507401,704.599854 198.912598,706.329895 
	C200.781586,714.309082 205.898819,719.181763 213.827637,720.491089 
	C222.213486,721.875916 230.291580,720.849854 235.900864,713.455811 
	C240.314407,707.638000 238.653992,699.743225 232.110718,696.394836 
	C228.039612,694.311523 223.308731,693.557556 218.970337,691.947327 
	C212.336227,689.484985 205.090714,687.839355 199.337189,684.000122 
	C185.418594,674.712402 187.402130,655.966675 202.635086,649.065247 
	C211.805832,644.910400 221.402863,644.694641 230.834671,648.183411 
	C240.738098,651.846558 246.157120,660.499939 246.034485,671.795044 
	C242.933868,671.795044 239.823212,671.795044 236.549194,671.795044 
	C235.724472,669.617859 235.041550,667.251160 233.968353,665.077087 
	C228.623184,654.248901 213.068268,651.334045 204.031342,659.398987 
	C198.845764,664.026672 198.582291,672.091553 204.485275,676.356140 
	C208.761658,679.445679 214.206406,681.024902 219.274887,682.882812 
	C225.011932,684.986023 231.275360,685.924316 236.668808,688.641663 
	C251.315170,696.020874 252.293793,714.375549 238.927856,724.076050 
	C227.882767,732.092163 210.554916,732.062012 198.265503,723.784912 
z"/>
<path fill="#070707" opacity="1.000000" stroke="none" 
	d="
M1027.934570,714.019287 
	C1034.814453,719.989563 1042.420166,721.160217 1050.645752,718.977661 
	C1059.322266,716.675537 1063.705322,710.964722 1063.734741,701.914917 
	C1063.792603,684.098572 1063.751709,666.281921 1063.751709,648.227234 
	C1067.103149,648.227234 1070.190674,648.227234 1073.852539,648.227234 
	C1073.852539,652.192566 1073.852539,656.134766 1073.852539,660.077026 
	C1073.852539,673.407532 1073.857422,686.737976 1073.851196,700.068481 
	C1073.843628,716.419556 1064.564087,726.966309 1048.227905,728.803467 
	C1038.027222,729.950684 1028.352905,727.985657 1021.062866,720.410828 
	C1017.799622,717.020203 1014.414185,712.039124 1014.253723,707.663574 
	C1013.528687,687.886475 1013.936890,668.067871 1013.936890,648.222351 
	C1017.167175,648.222351 1020.272522,648.222351 1023.793579,648.222351 
	C1023.793579,662.909241 1023.793335,677.365723 1023.793701,691.822205 
	C1023.793762,695.654724 1023.292603,699.574829 1023.940796,703.294617 
	C1024.567261,706.889465 1026.378906,710.277771 1027.934570,714.019287 
z"/>
<path fill="#050505" opacity="1.000000" stroke="none" 
	d="
M140.616180,662.259155 
	C147.788696,684.233704 154.797546,705.842896 161.801056,727.435669 
	C161.411972,727.671204 161.167816,727.944336 160.911850,727.955933 
	C152.012924,728.357727 152.008224,728.355713 149.244064,720.188660 
	C147.541595,715.158508 145.858963,710.121582 144.153900,705.092346 
	C144.051239,704.789551 143.828796,704.527466 143.612213,704.162292 
	C134.188751,704.162292 124.718529,704.162292 115.029221,704.162292 
	C112.349709,712.040955 109.683159,719.881531 106.972542,727.851685 
	C103.732918,727.851685 100.621002,727.851685 96.929359,727.851685 
	C105.598602,701.237732 114.197113,674.840942 122.857536,648.254028 
	C127.257561,648.254028 131.503326,648.254028 136.002289,648.254028 
	C137.469193,652.750061 138.960861,657.321899 140.616180,662.259155 
M135.074112,677.463745 
	C133.302017,672.143982 131.529938,666.824219 129.460449,660.611694 
	C127.337135,666.960510 125.500519,672.453125 123.663185,677.945496 
	C121.799034,683.518066 119.934189,689.090332 117.997787,694.877563 
	C125.886040,694.877563 133.194565,694.877563 140.924622,694.877563 
	C139.001434,689.171265 137.156067,683.695862 135.074112,677.463745 
z"/>
<path fill="#ABA57C" opacity="1.000000" stroke="none" 
	d="
M1064.395142,392.980408 
	C1063.976562,388.555206 1063.916138,384.127045 1064.397705,379.206970 
	C1066.590820,379.485931 1068.285522,380.175995 1069.886353,381.039917 
	C1089.474121,391.611542 1108.973145,402.350830 1128.647339,412.758850 
	C1148.011719,423.002991 1167.550293,432.917908 1187.012451,442.977234 
	C1180.417358,444.409363 1173.822266,445.841522 1166.856689,447.315552 
	C1159.391357,443.452606 1152.340332,439.465912 1145.194214,435.657623 
	C1119.868652,422.161316 1094.510986,408.725220 1069.163940,395.269165 
	C1067.700562,394.492279 1066.223755,393.740784 1064.395142,392.980408 
z"/>
<path fill="#030303" opacity="1.000000" stroke="none" 
	d="
M987.923462,347.534088 
	C987.921753,342.341156 987.976685,337.609406 988.008606,331.949829 
	C987.985596,318.448853 987.985596,305.875763 987.985596,293.278534 
	C992.872986,293.278534 997.259644,293.278534 1002.194092,293.278534 
	C1002.194092,309.640717 1002.194092,325.722015 1002.022339,342.254120 
	C1001.928223,347.156006 1002.005798,351.607086 1002.083374,356.058167 
	C1002.083374,370.519745 1002.083374,384.981323 1002.083374,399.758240 
	C997.289795,399.758240 992.899780,399.758240 987.980103,399.758240 
	C987.980103,382.523102 987.980103,365.259216 987.923462,347.534088 
z"/>
<path fill="#050505" opacity="1.000000" stroke="none" 
	d="
M333.940491,652.974304 
	C334.380859,656.178650 333.404053,657.195740 330.477814,657.109985 
	C323.365631,656.901367 316.243195,657.042114 308.842072,657.042114 
	C308.842072,680.788269 308.842072,704.057251 308.842072,727.683350 
	C305.504761,727.683350 302.433258,727.683350 298.912842,727.683350 
	C298.912842,704.452454 298.912842,681.058472 298.912842,657.189514 
	C290.432007,657.189514 282.370850,657.189514 274.070740,657.189514 
	C274.070740,653.983948 274.070740,651.244629 274.070740,648.245850 
	C293.830750,648.245850 313.584137,648.245850 333.701569,648.245850 
	C333.779938,649.642212 333.860229,651.072388 333.940491,652.974304 
z"/>
<path fill="#030303" opacity="1.000000" stroke="none" 
	d="
M876.937073,668.000366 
	C876.937073,688.103760 876.937073,707.707214 876.937073,727.674805 
	C873.744568,727.674805 870.677429,727.674805 867.241089,727.674805 
	C867.241089,701.475281 867.241089,674.999268 867.241089,648.258179 
	C870.211670,648.258179 873.286987,648.258179 876.937073,648.258179 
	C876.937073,654.656372 876.937073,661.078369 876.937073,668.000366 
z"/>
<path fill="#ABA57C" opacity="1.000000" stroke="none" 
	d="
M1002.411133,356.146210 
	C1002.005798,351.607086 1001.928223,347.156006 1002.387268,342.246277 
	C1004.397400,342.533203 1005.913818,343.205109 1007.337708,344.035797 
	C1021.516174,352.307495 1035.679321,360.605469 1049.846924,368.896027 
	C1049.906128,373.662201 1049.965332,378.428406 1049.925171,383.661682 
	C1038.406860,377.385071 1026.984741,370.647156 1015.571045,363.894867 
	C1011.283569,361.358429 1007.015808,358.788757 1002.411133,356.146210 
z"/>
<path fill="#A9A278" opacity="1.000000" stroke="none" 
	d="
M1195.046265,460.534119 
	C1204.682739,460.024475 1212.586426,464.065491 1219.182373,471.493530 
	C1211.240356,468.161194 1203.235718,464.489685 1195.046265,460.534119 
z"/>
<path fill="#FFFFFF" opacity="1.000000" stroke="none" 
	d="
M1175.010864,337.982666 
	C1159.888306,329.399475 1144.765869,320.816284 1129.279053,311.844849 
	C1128.616455,311.273499 1128.318237,311.090393 1128.019897,310.907288 
	C1128.019897,310.907288 1128.015137,310.980804 1128.033325,310.607849 
	C1127.106812,308.529663 1126.398926,306.629028 1125.178955,305.150940 
	C1117.088867,295.349426 1106.241211,292.495697 1094.083618,293.097565 
	C1081.135254,286.638306 1068.186523,280.179840 1055.238647,273.719574 
	C1002.790344,247.550964 949.865906,222.427795 894.816040,202.112625 
	C871.393127,193.468826 847.738159,185.461716 822.639587,183.037613 
	C822.211426,182.996246 821.810730,182.671082 820.412292,182.019333 
	C827.935608,173.533371 834.806702,165.012009 842.469849,157.275070 
	C872.870667,126.581337 908.955872,104.738876 949.395874,89.967979 
	C979.879639,78.833656 1011.341309,72.290794 1043.726562,69.656303 
	C1098.561157,65.195564 1151.984131,71.867752 1204.224731,88.750061 
	C1212.289917,91.356453 1220.201782,94.433464 1228.239868,97.127800 
	C1245.689941,102.976883 1259.601196,114.578232 1273.753784,125.572456 
	C1309.417114,153.277054 1339.856567,185.969910 1364.797974,223.656586 
	C1392.024902,264.796448 1411.303955,309.317291 1420.483521,357.924774 
	C1429.510498,405.725433 1427.705688,452.971985 1412.076050,499.349518 
	C1411.708130,500.440979 1411.211304,501.489014 1410.505737,503.214996 
	C1407.284790,499.597137 1404.452515,496.212616 1401.408569,493.030334 
	C1384.990967,475.865845 1366.631470,460.879272 1347.195679,447.411530 
	C1315.452148,425.415314 1283.285156,404.014008 1250.935913,382.915070 
	C1234.534668,372.217773 1217.344604,362.729797 1200.764526,352.382019 
	C1214.617554,352.068970 1228.217407,352.068970 1241.968994,352.068970 
	C1241.968994,347.523499 1241.968994,343.458313 1241.968994,338.983551 
	C1224.206665,338.983551 1206.642944,338.983551 1188.943237,338.983551 
	C1188.943237,327.857269 1188.943237,317.143127 1188.943237,305.930603 
	C1209.033936,305.930603 1228.898560,305.930603 1248.683105,305.930603 
	C1248.683105,301.355255 1248.683105,297.286102 1248.683105,293.306244 
	C1224.023315,293.306244 1199.655762,293.306244 1175.010864,293.306244 
	C1175.010864,308.404907 1175.010864,323.193787 1175.010864,337.982666 
z"/>
<path fill="#FEFEFE" opacity="1.000000" stroke="none" 
	d="
M1187.478271,443.011597 
	C1167.550293,432.917908 1148.011719,423.002991 1128.647339,412.758850 
	C1108.973145,402.350830 1089.474121,391.611542 1069.886353,381.039917 
	C1068.285522,380.175995 1066.590820,379.485931 1064.569458,378.756226 
	C1064.199097,371.366119 1064.199097,363.934906 1064.199097,356.920471 
	C1075.259644,356.920471 1086.230713,356.156097 1097.042847,357.139740 
	C1107.441895,358.085815 1112.856079,365.457916 1113.040405,375.809021 
	C1113.143921,381.625031 1113.306641,387.454468 1113.817749,393.244751 
	C1114.352661,399.304749 1115.450073,400.074127 1121.582031,400.076019 
	C1124.224487,400.076843 1126.866943,400.076141 1128.204102,400.076141 
	C1127.783691,392.539246 1127.051514,385.180603 1127.047241,377.821503 
	C1127.042358,369.378937 1125.272339,361.720642 1119.517212,355.314667 
	C1118.092529,353.728912 1116.498413,352.295471 1114.821533,350.632721 
	C1123.941895,346.000183 1129.493896,338.881409 1131.096680,328.443878 
	C1136.350586,330.834229 1141.605103,333.518768 1146.734131,336.425171 
	C1156.092041,341.728027 1165.375366,347.162323 1174.888672,353.284210 
	C1175.087524,369.251068 1175.087524,384.475494 1175.087524,399.999603 
	C1199.130981,399.999603 1222.827148,400.031067 1246.521973,399.875458 
	C1247.397583,399.869690 1248.261230,398.036987 1249.130371,397.055664 
	C1258.163452,402.631592 1267.509644,407.762756 1276.172729,413.864044 
	C1306.234497,435.036255 1336.446533,456.031952 1365.791748,478.167816 
	C1378.311768,487.611938 1388.991699,499.547394 1400.127197,510.729767 
	C1402.283325,512.894958 1402.672607,516.819336 1403.876953,519.932312 
	C1400.604126,520.582764 1397.094116,522.339844 1394.098633,521.697449 
	C1378.873779,518.432495 1363.342896,515.786743 1348.736816,510.614960 
	C1319.611938,500.302155 1291.025757,488.468903 1262.203979,477.297638 
	C1256.638306,475.140381 1251.012451,473.138489 1245.039673,471.197479 
	C1232.539062,448.303406 1212.070679,442.006897 1187.478271,443.011597 
z"/>
<path fill="#FEFEFE" opacity="1.000000" stroke="none" 
	d="
M1049.904297,368.437073 
	C1035.679321,360.605469 1021.516174,352.307495 1007.337708,344.035797 
	C1005.913818,343.205109 1004.397400,342.533203 1002.558960,341.795471 
	C1002.194092,325.722015 1002.194092,309.640717 1002.194092,293.278534 
	C997.259644,293.278534 992.872986,293.278534 987.985596,293.278534 
	C987.985596,305.875763 987.985596,318.448853 987.931213,331.485718 
	C979.498047,326.929657 970.820618,322.343597 962.791870,316.815369 
	C926.599365,291.894745 890.407166,266.965118 854.608276,241.485855 
	C840.698120,231.585510 826.548218,221.624771 816.197937,207.625488 
	C813.865479,204.470734 812.736755,200.425980 811.053833,196.790924 
	C814.830078,196.196457 818.852234,194.456802 822.339966,195.205811 
	C837.428101,198.446030 852.659607,201.496994 867.295654,206.279358 
	C923.899231,224.774734 977.862549,249.621841 1031.191284,275.896484 
	C1042.071655,281.257172 1052.860962,286.802734 1063.825439,292.577881 
	C1059.497925,292.892700 1055.037231,292.892700 1049.961914,292.892700 
	C1049.961914,318.195190 1049.961914,343.086670 1049.904297,368.437073 
z"/>
<path fill="#030303" opacity="1.000000" stroke="none" 
	d="
M1175.323486,338.123779 
	C1175.010864,323.193787 1175.010864,308.404907 1175.010864,293.306244 
	C1199.655762,293.306244 1224.023315,293.306244 1248.683105,293.306244 
	C1248.683105,297.286102 1248.683105,301.355255 1248.683105,305.930603 
	C1228.898560,305.930603 1209.033936,305.930603 1188.943237,305.930603 
	C1188.943237,317.143127 1188.943237,327.857269 1188.943237,338.983551 
	C1206.642944,338.983551 1224.206665,338.983551 1241.968994,338.983551 
	C1241.968994,343.458313 1241.968994,347.523499 1241.968994,352.068970 
	C1228.217407,352.068970 1214.617554,352.068970 1200.558838,352.128510 
	C1191.945435,347.547028 1183.790771,342.905975 1175.323486,338.123779 
z"/>
<path fill="#FEFDFD" opacity="1.000000" stroke="none" 
	d="
M1269.899414,18.448875 
	C1291.525146,14.357568 1305.601807,30.879766 1305.098511,46.953072 
	C1304.830811,55.502602 1303.630493,57.264931 1295.645630,59.632946 
	C1286.570435,62.324280 1277.419189,64.767815 1268.393066,67.611328 
	C1265.119141,68.642769 1263.789795,67.556137 1262.947021,64.627296 
	C1259.914429,54.087433 1256.706299,43.596233 1253.847290,33.010269 
	C1253.423584,31.441795 1253.911743,28.631897 1255.021118,27.817991 
	C1259.626587,24.438730 1264.632080,21.604534 1269.899414,18.448875 
z"/>
<path fill="#FEFEFE" opacity="1.000000" stroke="none" 
	d="
M1117.426514,320.852478 
	C1118.507080,335.498169 1111.031006,343.737518 1096.621826,343.942078 
	C1085.820190,344.095490 1075.014648,343.972382 1063.963501,343.972382 
	C1063.963501,330.937653 1063.963501,318.214966 1063.963501,304.931763 
	C1071.713623,304.931763 1079.338379,304.931763 1087.423584,304.907166 
	C1097.628662,310.166962 1107.373413,315.451324 1117.426514,320.852478 
z"/>
<path fill="#010101" opacity="1.000000" stroke="none" 
	d="
M1249.051025,396.606567 
	C1248.261230,398.036987 1247.397583,399.869690 1246.521973,399.875458 
	C1222.827148,400.031067 1199.130981,399.999603 1175.087524,399.999603 
	C1175.087524,384.475494 1175.087524,369.251068 1175.099854,353.563934 
	C1179.496216,355.603516 1183.880249,358.105804 1188.488647,361.273865 
	C1188.712891,370.179382 1188.712891,378.419128 1188.712891,386.802979 
	C1203.754272,386.802979 1218.329712,386.802979 1232.905151,386.802979 
	C1238.067505,387.845367 1243.229858,388.887756 1248.971558,390.047150 
	C1248.971558,391.675781 1248.971558,393.916626 1249.051025,396.606567 
z"/>
<path fill="#FEFDFD" opacity="1.000000" stroke="none" 
	d="
M1232.674561,386.574890 
	C1218.329712,386.802979 1203.754272,386.802979 1188.712891,386.802979 
	C1188.712891,378.419128 1188.712891,370.179382 1188.751465,361.471741 
	C1197.716553,365.987000 1206.694092,370.881958 1215.551758,375.984924 
	C1221.273193,379.281250 1226.819214,382.882324 1232.674561,386.574890 
z"/>
<path fill="#0F0F0D" opacity="1.000000" stroke="none" 
	d="
M1094.179077,293.419922 
	C1106.241211,292.495697 1117.088867,295.349426 1125.178955,305.150940 
	C1126.398926,306.629028 1127.106812,308.529663 1128.069336,310.599854 
	C1126.288452,310.302002 1124.388916,309.830872 1122.708130,308.944641 
	C1113.201294,303.932251 1103.746826,298.820343 1094.179077,293.419922 
z"/>
<path fill="#0F0F0D" opacity="1.000000" stroke="none" 
	d="
M1127.979248,311.203491 
	C1128.318237,311.090393 1128.616455,311.273499 1128.951294,311.725769 
	C1128.638062,311.829803 1128.288330,311.664764 1127.979248,311.203491 
z"/>
<path fill="#FDFDFD" opacity="1.000000" stroke="none" 
	d="
M290.726501,387.049957 
	C278.046356,387.085968 265.784851,387.085968 253.218842,387.085968 
	C253.218842,375.727448 253.218842,363.679321 253.218842,351.555023 
	C264.937988,351.555023 276.743469,350.774933 288.392761,351.788849 
	C298.687500,352.684875 305.348969,360.052887 305.992523,368.474304 
	C306.649597,377.072601 301.672150,383.287842 290.726501,387.049957 
z"/>
<path fill="#FDFDFD" opacity="1.000000" stroke="none" 
	d="
M295.434540,335.610168 
	C292.010132,336.855804 288.915680,338.656464 285.763397,338.764130 
	C274.986450,339.132111 264.189178,338.905121 253.162018,338.905121 
	C253.162018,327.615479 253.162018,316.562958 253.162018,305.147980 
	C264.275635,305.147980 275.235046,304.793762 286.158142,305.270599 
	C293.625275,305.596619 300.340942,311.393188 301.899994,317.856293 
	C303.608612,324.939545 302.069305,331.049072 295.434540,335.610168 
z"/>
<path fill="#FDFDFD" opacity="1.000000" stroke="none" 
	d="
M548.898132,343.145752 
	C536.087158,343.204010 523.697632,343.204010 511.149841,343.204010 
	C511.149841,330.874756 511.149841,318.175079 511.149841,305.808411 
	C523.774170,305.808411 536.225769,305.069763 548.543457,306.036865 
	C558.815125,306.843323 564.610962,314.332397 564.811157,324.102478 
	C565.008057,333.714386 559.352417,340.645416 548.898132,343.145752 
z"/>
<path fill="#FEFEFE" opacity="1.000000" stroke="none" 
	d="
M376.288635,371.547913 
	C369.001709,355.612244 368.655975,339.679443 374.991455,323.914612 
	C380.397705,310.461975 390.873199,303.145081 405.501251,303.173920 
	C420.213806,303.202911 430.369659,310.942413 435.819214,324.269012 
	C441.493561,338.145264 441.638794,352.506622 436.440857,366.582550 
	C431.525513,379.893005 421.929169,387.937378 407.467712,388.746765 
	C393.864624,389.508087 383.303101,383.931946 376.288635,371.547913 
z"/>
<path fill="#FEFEFE" opacity="1.000000" stroke="none" 
	d="
M926.395142,371.239868 
	C918.876465,384.241943 906.636536,390.637146 893.474121,388.618591 
	C877.802063,386.215149 867.131592,376.404694 864.188232,360.278168 
	C861.293884,344.420349 861.516968,328.679291 872.176453,315.173645 
	C885.484985,298.311676 911.297363,299.118927 923.631958,316.683258 
	C931.168701,327.415497 932.994690,339.697693 931.533630,352.335419 
	C930.804443,358.642273 928.317688,364.745911 926.395142,371.239868 
z"/>
<path fill="#FCFCFC" opacity="1.000000" stroke="none" 
	d="
M144.116394,342.133606 
	C147.619171,331.817017 151.010666,321.882599 154.815384,310.737793 
	C160.091766,326.342651 165.015350,340.904083 170.042679,355.772369 
	C159.858383,355.772369 150.001358,355.772369 139.683289,355.772369 
	C141.168457,351.216797 142.586792,346.866302 144.116394,342.133606 
z"/>
<path fill="#FCFCFC" opacity="1.000000" stroke="none" 
	d="
M654.809570,319.716248 
	C655.744446,316.871155 656.562561,314.404663 657.796936,310.683167 
	C663.091309,326.341339 668.015198,340.903870 673.042664,355.772766 
	C662.858093,355.772766 653.000916,355.772766 642.572449,355.772766 
	C646.668091,343.716705 650.680481,331.905792 654.809570,319.716248 
z"/>
<path fill="#FDFDFD" opacity="1.000000" stroke="none" 
	d="
M939.949951,655.606934 
	C955.157043,653.504517 966.204041,661.186462 969.839050,676.000549 
	C972.742981,687.835266 971.308289,700.363892 965.990784,707.550781 
	C963.838806,705.754517 961.702148,703.970947 959.174011,701.860718 
	C956.891296,704.390808 954.595276,706.935669 951.565491,710.293823 
	C953.835571,711.817017 956.047791,713.301392 958.303650,714.815063 
	C945.999634,725.915222 931.422302,719.728455 925.134705,710.280762 
	C917.341125,698.570129 917.096130,677.754883 924.877686,666.070129 
	C928.427246,660.740173 933.112000,656.980835 939.949951,655.606934 
z"/>
<path fill="#FDFDFD" opacity="1.000000" stroke="none" 
	d="
M373.934692,681.877197 
	C373.934692,673.430664 373.934692,665.470947 373.934692,657.146912 
	C383.214691,657.146912 392.180908,656.735413 401.090790,657.267578 
	C409.297729,657.757874 414.277618,663.613281 414.276978,671.384460 
	C414.276306,679.458984 409.219116,685.272400 400.799225,685.785522 
	C392.665894,686.281128 384.480469,685.860413 376.322479,686.044006 
	C373.115570,686.116150 374.091980,683.993896 373.934692,681.877197 
z"/>
<path fill="#FDFDFD" opacity="1.000000" stroke="none" 
	d="
M706.804504,665.294189 
	C714.281311,677.338745 714.681580,689.879517 710.589905,702.586548 
	C706.980347,713.796509 698.081238,719.978333 687.024841,719.958252 
	C675.932312,719.938110 667.262146,713.730591 663.442200,702.566589 
	C659.811340,691.954773 659.892273,681.183105 664.209473,670.816956 
	C671.911926,652.322815 694.015198,649.388916 706.804504,665.294189 
z"/>
<path fill="#FDFDFD" opacity="1.000000" stroke="none" 
	d="
M468.294189,708.559082 
	C461.829315,696.712891 461.487488,684.665161 465.595612,672.506104 
	C469.394501,661.262329 478.180969,655.024902 489.127747,655.041748 
	C499.994965,655.058472 508.735016,661.460144 512.589783,672.645203 
	C515.944641,682.379944 516.067932,692.331482 512.804138,702.082214 
	C509.627716,711.572021 503.364258,718.208984 493.049133,719.656006 
	C482.804199,721.093018 474.364868,717.735840 468.294189,708.559082 
z"/>
<path fill="#FCFCFC" opacity="1.000000" stroke="none" 
	d="
M135.192413,677.842102 
	C137.156067,683.695862 139.001434,689.171265 140.924622,694.877563 
	C133.194565,694.877563 125.886040,694.877563 117.997787,694.877563 
	C119.934189,689.090332 121.799034,683.518066 123.663185,677.945496 
	C125.500519,672.453125 127.337135,666.960510 129.460449,660.611694 
	C131.529938,666.824219 133.302017,672.143982 135.192413,677.842102 
z"/>
</svg>